<svg width="52" height="48" viewBox="0 0 52 48" fill="none" xmlns="http://www.w3.org/2000/svg">
<path d="M46.096 34.9809L39.8078 32.6842H0.185059L0.665006 34.9809H31.8845L34.6511 35.9145L37.4654 35.2111L39.8078 34.9809H46.096Z" fill="url(#paint0_linear_38_7742)"/>
<path opacity="0.41" d="M23.4439 34.433L9.87085 34.9809H0.665006L0.185059 32.6842L16.4852 32.6661L23.4439 34.433Z" fill="#281400"/>
<path d="M0.665039 34.9809H31.8845L34.6511 35.9145L37.4654 35.2111L39.8078 34.9809H46.096L49.4287 48H3.42881L0.665039 34.9809Z" fill="url(#paint1_linear_38_7742)"/>
<g style="mix-blend-mode:overlay" opacity="0.21">
<path d="M32.055 35.4755L34.8372 36.4091L37.6664 35.7057L40.0214 35.4755H46.2229L46.096 34.9809H39.8078L37.4654 35.2111L34.6511 35.9145L31.8845 34.9809H0.665039L0.770106 35.4755H32.055Z" fill="white"/>
</g>
<path opacity="0.34" d="M2.07735 34.9809L7.04512 48H3.42881L0.665039 34.9809H2.07735Z" fill="#401E00"/>
<g style="mix-blend-mode:overlay" opacity="0.19">
<path d="M34.8388 34.755L31.8844 34.9809L34.651 35.9145L37.4653 35.2111L39.6659 34.9947L34.8388 34.755Z" fill="white"/>
</g>
<path style="mix-blend-mode:overlay" opacity="0.23" d="M2.85461 45.457H48.7776L49.4286 48H3.42872L2.85461 45.457Z" fill="url(#paint2_linear_38_7742)"/>
<path d="M24.6805 30.6329L22.9731 30.7399L21.2651 30.6329C21.2651 30.6329 18.2884 30.7994 15.7755 32.5396C15.7755 32.5396 17.5019 33.1988 22.9731 33.1988C28.4444 33.1988 30.1707 32.5396 30.1707 32.5396C27.6578 30.7994 24.6805 30.6329 24.6805 30.6329Z" fill="url(#paint3_linear_38_7742)"/>
<g style="mix-blend-mode:overlay" opacity="0.43">
<path d="M22.9731 32.9791C18.5973 32.9791 16.6183 32.5577 16.0006 32.3889C15.9254 32.4364 15.8501 32.4878 15.7755 32.5396C15.7755 32.5396 17.5019 33.1988 22.9731 33.1988C28.4444 33.1988 30.1707 32.5396 30.1707 32.5396C30.0961 32.4878 30.0209 32.4378 29.9451 32.3889C29.3274 32.5577 27.349 32.9791 22.9731 32.9791Z" fill="white"/>
</g>
<path d="M30.165 32.542C30.0501 32.5843 28.2566 33.1988 22.9742 33.1988C17.5036 33.1988 15.7772 32.5396 15.7766 32.5396L15.3748 33.663C15.3748 33.663 17.6138 34.4239 22.9002 34.4358H23.0454C28.3307 34.4216 30.5703 33.663 30.5703 33.663L30.165 32.542Z" fill="url(#paint4_radial_38_7742)"/>
<path style="mix-blend-mode:overlay" opacity="0.43" d="M24.8716 30.6491C24.7493 30.6367 24.681 30.6329 24.681 30.6329L22.9736 30.7399L21.2656 30.6329C21.2656 30.6329 18.2889 30.7994 15.776 32.5396C19.0616 31.4809 23.5965 31.2997 23.5965 31.2997L24.8716 30.6491Z" fill="url(#paint5_linear_38_7742)"/>
<path d="M25.982 26.4106C25.695 26.363 24.7511 26.2788 23.5409 26.2607H23.4714H23.3084H22.8296H22.6671H22.5976C21.3874 26.2788 20.443 26.3606 20.1565 26.4106C20.0922 26.4177 20.0273 26.4253 19.9636 26.4334L21.0188 30.9097C21.0188 30.9097 21.4207 31.2298 22.5873 31.3069H22.62H22.6235C22.7618 31.3159 22.9105 31.3211 23.069 31.3207C23.2274 31.3202 23.3767 31.3159 23.5145 31.3069H23.5185H23.5512C24.7178 31.2298 25.1197 30.9097 25.1197 30.9097L26.1749 26.432L25.982 26.4106Z" fill="url(#paint6_linear_38_7742)"/>
<path style="mix-blend-mode:overlay" opacity="0.37" d="M24.0565 31.2521C24.835 31.1342 25.1192 30.9097 25.1192 30.9097L26.1744 26.4319L25.9815 26.4091C25.5596 26.352 25.134 26.315 24.707 26.2983L24.2563 26.5213L24.0565 31.2521Z" fill="url(#paint7_linear_38_7742)"/>
<path style="mix-blend-mode:overlay" opacity="0.27" d="M22.8784 26.2579H22.8296H22.6671H22.5976C21.3874 26.2759 20.443 26.3578 20.1565 26.4077C20.0915 26.415 20.0272 26.4226 19.9636 26.4305L21.0188 30.9069C21.0188 30.9069 21.4207 31.227 22.5873 31.304H22.62H22.6235C22.7308 31.3111 22.8457 31.3149 22.9645 31.3164L22.8784 26.2579Z" fill="url(#paint8_linear_38_7742)"/>
<path style="mix-blend-mode:screen" d="M27.442 21.6574C40.6557 21.6574 51.3674 17.1786 51.3674 11.6536C51.3674 6.12869 40.6557 1.64984 27.442 1.64984C14.2284 1.64984 3.5166 6.12869 3.5166 11.6536C3.5166 17.1786 14.2284 21.6574 27.442 21.6574Z" fill="url(#paint9_radial_38_7742)"/>
<path d="M28.681 26.0586L23.0696 26.2574L17.4589 26.0586L17.7132 27.0003C17.7132 27.0003 20.0314 27.581 23.0691 27.581C26.1067 27.581 28.4249 27.0003 28.4249 27.0003L28.681 26.0586Z" fill="url(#paint10_linear_38_7742)"/>
<path style="mix-blend-mode:overlay" opacity="0.18" d="M21.2696 26.1942L17.4592 26.0591L17.7136 27.0008C17.7136 27.0008 19.2602 27.3879 21.482 27.5296L21.2696 26.1942Z" fill="url(#paint11_linear_38_7742)"/>
<path d="M10.961 16.8025L3.44189 18.05V18.7101L6.8762 23.762L9.05667 24.5676L13.0358 23.9189L12.607 22.6709L9.53318 23.0348L8.07897 22.543L5.91342 19.4573L6.74475 18.5332L11.5414 19.0454L10.961 16.8025Z" fill="url(#paint12_linear_38_7742)"/>
<path d="M10.7302 16.1228L5.71077 15.6077L3.44189 18.0499L6.77058 23.1531L8.88444 23.9669L12.7419 23.3115L12.3257 22.0507L9.3466 22.4183L7.93716 21.9218L5.83765 18.8042L6.6437 17.8711L11.2934 18.3886L10.7302 16.1228Z" fill="url(#paint13_linear_38_7742)"/>
<g opacity="0.28">
<path d="M7.93691 21.9218L5.8374 18.8042V19.1124L7.93691 22.2295L9.34635 22.726L12.423 22.3465L12.3254 22.0507L9.34635 22.4183L7.93691 21.9218Z" fill="#FFFF6C"/>
<path d="M5.71077 15.9154L10.8089 16.4386L10.7302 16.1228L5.71077 15.6077L3.44189 18.0499L3.56015 18.2307L5.71077 15.9154Z" fill="#FFFF6C"/>
</g>
<g opacity="0.35">
<path d="M9.16816 18.7924L10.55 18.9398L9.98799 16.6721L9.92885 16.6826L9.83584 16.2921L9.77212 16.0244L8.59863 15.9041L9.16816 18.7924Z" fill="black"/>
<path d="M12.5206 23.9669L12.214 22.8126L11.8529 22.504L12.0843 22.0807L9.87109 22.3537L10.2689 24.3702L11.4528 24.1771L12.5206 23.9669Z" fill="black"/>
</g>
<path d="M34.8497 16.8025L42.3682 18.05V18.7101L38.9345 23.762L36.7534 24.5676L32.7743 23.9189L33.2037 22.6709L36.2769 23.0348L37.7312 22.543L39.8967 19.4573L39.0654 18.5332L34.2687 19.0454L34.8497 16.8025Z" fill="url(#paint14_linear_38_7742)"/>
<path d="M35.08 16.1228L40.1 15.6077L42.3683 18.0499L39.0396 23.1531L36.9257 23.9669L33.0688 23.3115L33.4845 22.0507L36.4641 22.4183L37.8736 21.9218L39.9725 18.8042L39.167 17.8711L34.5173 18.3886L35.08 16.1228Z" fill="url(#paint15_linear_38_7742)"/>
<path d="M37.8735 21.9218L39.9724 18.8043V19.1124L37.8735 22.2295L36.4641 22.7261L33.3868 22.3465L33.4844 22.0507L36.4641 22.4184L37.8735 21.9218Z" fill="#FFCE6C"/>
<path d="M40.1 15.9154L35.0013 16.4386L35.08 16.1228L40.1 15.6077L42.3683 18.0499L42.2506 18.2307L40.1 15.9154Z" fill="#FFCE6C"/>
<g opacity="0.4">
<path d="M35.3805 24.3441L35.8277 22.3399L34.3339 22.1558L34.2495 22.4117L34.1157 22.8179L34.0256 22.8074L33.5973 24.053L35.3805 24.3441Z" fill="black"/>
<path d="M36.5511 18.8019L37.1976 15.9055L36.0166 16.0267L35.9621 16.2455L35.853 16.6854L35.7835 16.674L35.1951 18.9464L36.5511 18.8019Z" fill="black"/>
</g>
<path d="M37.0234 14.0107C37.0234 12.9844 30.7759 12.1525 23.0691 12.1525C15.3622 12.1525 9.11536 12.9844 9.11536 14.0107C9.11599 14.0524 9.12632 14.0936 9.14579 14.132C9.39782 15.1379 11.1753 22.1696 11.9394 23.6216C12.7431 25.1402 17.138 26.4753 22.8239 26.5466V26.5504C22.9066 26.5504 22.9876 26.5504 23.0691 26.5504C23.1506 26.5504 23.2321 26.5504 23.3142 26.5504V26.5466C29.0008 26.4738 33.3985 25.1402 34.1993 23.6216C34.9635 22.172 36.7409 15.1379 36.9929 14.132C37.0124 14.0936 37.0227 14.0524 37.0234 14.0107Z" fill="url(#paint16_radial_38_7742)"/>
<path style="mix-blend-mode:screen" d="M36.2536 21.4862C40.5594 17.9192 40.5594 12.136 36.2535 8.56893C31.9477 5.00192 24.9666 5.00191 20.6608 8.56893C16.3549 12.1359 16.3549 17.9192 20.6608 21.4862C24.9666 25.0533 31.9477 25.0533 36.2536 21.4862Z" fill="url(#paint17_radial_38_7742)"/>
<path style="mix-blend-mode:screen" d="M36.1456 20.4323C40.4515 16.8653 40.4515 11.0821 36.1457 7.51504C31.8398 3.94802 24.8587 3.94802 20.5529 7.51504C16.247 11.0821 16.247 16.8653 20.5529 20.4324C24.8587 23.9994 31.8398 23.9994 36.1456 20.4323Z" fill="url(#paint18_radial_38_7742)"/>
<path style="mix-blend-mode:screen" d="M31.3089 19.376C35.6147 15.8089 35.6147 10.0257 31.3089 6.45864C27.003 2.89162 20.0219 2.89162 15.7161 6.45864C11.4102 10.0257 11.4102 15.8089 15.7161 19.376C20.0219 22.943 27.003 22.943 31.3089 19.376Z" fill="url(#paint19_radial_38_7742)"/>
<path style="mix-blend-mode:overlay" d="M27.9844 13.1964C27.9844 13.1964 27.1043 20.632 26.5594 22.3988C26.0146 24.1657 22.0613 26.5841 17.4592 26.0609C19.0271 26.3463 20.8465 26.5237 22.8243 26.5489V26.5527C22.9069 26.5527 22.9879 26.5527 23.07 26.5527C23.1521 26.5527 23.2325 26.5527 23.3146 26.5527V26.5489C25.2258 26.5247 26.9889 26.3587 28.5223 26.0885C28.6475 26.0543 31.7298 25.1759 32.5101 22.3013C33.3064 19.3673 34.5769 14.1143 34.5769 14.1143L27.9844 13.1964Z" fill="url(#paint20_linear_38_7742)"/>
<path opacity="0.37" d="M16.2911 23.0504C15.7974 21.9566 14.5923 14.8273 14.2243 12.5915C11.1063 12.932 9.11475 13.4476 9.11475 14.0283C9.11532 14.07 9.12565 14.1111 9.14518 14.1496C9.39721 15.1555 11.1746 22.1872 11.9388 23.6392C12.7098 25.1008 16.8118 26.3901 22.1872 26.5504C17.9084 25.9492 16.8778 24.3503 16.2911 23.0504Z" fill="url(#paint21_linear_38_7742)"/>
<path opacity="0.35" d="M9.11536 14.0107C9.11599 14.0523 9.12632 14.0935 9.14579 14.132C9.22616 14.4535 9.46326 15.3918 9.77271 16.5666C17.2505 13.2768 34.5742 14.112 34.5742 14.112L35.6593 13.2083C33.4117 12.5829 28.6184 12.1516 23.0674 12.1516C15.3628 12.1525 9.11536 12.9843 9.11536 14.0107Z" fill="url(#paint22_linear_38_7742)"/>
<path style="mix-blend-mode:overlay" opacity="0.2" d="M23.5506 23.5308C23.2636 22.3523 22.3697 13.1988 22.3697 13.1988L22.2669 12.1587C18.4945 12.1901 15.129 12.4212 12.7585 12.7736V12.8298H12.7649C12.983 12.7981 13.2094 12.7673 13.444 12.7375L13.5066 12.7294L13.7805 12.6961L13.8763 12.6847C13.9843 12.672 14.0934 12.6597 14.2036 12.6476L14.2225 12.6452C14.5928 14.8806 15.7979 22.0103 16.2893 23.1042C16.3467 23.2255 16.4041 23.3486 16.4667 23.4737L16.4759 23.4913C16.4937 23.5256 16.5121 23.5598 16.5333 23.5945L16.5551 23.634C16.5701 23.6616 16.5856 23.6887 16.6016 23.7163L16.6326 23.7686C16.6464 23.7919 16.6602 23.8161 16.6746 23.8385L16.7142 23.9008C16.7268 23.9208 16.7394 23.9408 16.7526 23.9607L16.7997 24.0302L16.8359 24.083L16.8933 24.1586L16.9277 24.2061C16.9484 24.2337 16.9691 24.2608 16.9909 24.2879L17.0225 24.3274C17.046 24.3564 17.0701 24.385 17.0954 24.414L17.1241 24.4473C17.1511 24.4777 17.178 24.5086 17.2067 24.5391L17.232 24.5657C17.2624 24.598 17.2934 24.6304 17.3256 24.6608C17.3325 24.667 17.3394 24.6737 17.3457 24.6803C17.3807 24.7146 17.4163 24.7488 17.453 24.7826L17.4651 24.794C18.1494 25.4194 19.1937 25.9906 20.8948 26.3711H20.8994C21.0043 26.3942 21.112 26.4171 21.2226 26.4396H21.229C21.3392 26.4614 21.4521 26.4827 21.5677 26.5033C22.0057 26.5247 22.453 26.5394 22.9094 26.5451V26.549C22.9915 26.549 23.073 26.549 23.1545 26.549C23.236 26.549 23.3176 26.549 23.3997 26.549V26.5451C23.9271 26.5385 24.4438 26.5212 24.9498 26.4933C24.5106 25.7376 23.7522 24.3531 23.5506 23.5308Z" fill="url(#paint23_linear_38_7742)"/>
<path d="M23.0702 9.33789C14.4585 9.33789 7.47449 10.5141 7.47449 11.9646C7.475 12.0228 7.48641 12.0806 7.50835 12.1359C7.58241 12.5102 7.77475 13.4747 8.03309 14.7303C9.84958 13.6188 15.8932 12.8022 23.0702 12.8022C30.2471 12.8022 36.2902 13.6188 38.1072 14.7303C38.3656 13.4747 38.5579 12.5102 38.632 12.1359C38.6539 12.0806 38.6653 12.0228 38.6658 11.9646C38.6658 10.5141 31.6835 9.33789 23.0702 9.33789Z" fill="url(#paint24_radial_38_7742)"/>
<path style="mix-blend-mode:screen" d="M31.0705 17.8726C36.3662 17.8726 40.6592 14.3162 40.6592 9.92909C40.6592 5.54202 36.3662 1.9856 31.0705 1.9856C25.7747 1.9856 21.4817 5.54202 21.4817 9.92909C21.4817 14.3162 25.7747 17.8726 31.0705 17.8726Z" fill="url(#paint25_radial_38_7742)"/>
<path style="mix-blend-mode:overlay" d="M29.4383 9.56616L28.9641 12.9429L30.1003 13.0856C31.5392 13.2015 32.9696 13.3809 34.3854 13.623L35.3316 13.7419L36.1778 10.5426C34.5468 10.116 32.2061 9.77495 29.4383 9.56616Z" fill="url(#paint26_linear_38_7742)"/>
<path opacity="0.14" d="M17.48 9.51196C11.6282 9.89244 7.47449 10.8436 7.47449 11.9646C7.475 12.0228 7.48641 12.0806 7.50835 12.1359C7.58241 12.5102 7.77475 13.4747 8.03309 14.7303C9.38857 13.9008 13.0967 13.2359 17.8727 12.952L17.48 9.51196Z" fill="black"/>
<path style="mix-blend-mode:overlay" opacity="0.64" d="M23.0698 9.33789C14.4582 9.33789 7.47412 10.5141 7.47412 11.9646C7.47463 12.0228 7.48605 12.0806 7.50798 12.1359C7.51143 12.1554 7.51602 12.1777 7.52061 12.2005C8.1395 10.8455 14.8646 9.7783 23.0698 9.7783C31.275 9.7783 37.9995 10.8455 38.619 12.2005C38.6236 12.1777 38.6276 12.153 38.6316 12.1359C38.6535 12.0806 38.6649 12.0228 38.6655 11.9646C38.6655 10.5141 31.6831 9.33789 23.0698 9.33789Z" fill="url(#paint27_linear_38_7742)"/>
<path opacity="0.35" d="M22.9599 12.347C10.5965 12.347 8.37121 13.9303 8.07669 14.5063C8.03961 14.5724 8.03207 14.6472 8.05544 14.7174C9.89719 13.6126 15.9207 12.8022 23.0701 12.8022C30.2195 12.8022 36.2402 13.6107 38.0836 14.717C38.1065 14.6468 38.0988 14.5722 38.0618 14.5063C37.7673 13.9303 35.3262 12.347 22.9599 12.347Z" fill="url(#paint28_linear_38_7742)"/>
<path d="M38.0618 14.5919C37.7673 14.0801 35.3239 12.6738 22.9599 12.6738C10.5959 12.6738 8.37121 14.0801 8.07612 14.5919C7.78103 15.1036 9.43676 15.2739 9.43676 15.2739L9.26453 14.5919C13.4509 13.4704 20.5814 13.361 23.0713 13.3586C25.5612 13.3563 32.6922 13.4704 36.878 14.5919L36.7058 15.2739C36.7058 15.2739 38.3569 15.1036 38.0618 14.5919Z" fill="url(#paint29_linear_38_7742)"/>
<path opacity="0.14" d="M27.4371 19.9702C27.503 17.5669 25.2045 15.5744 22.3034 15.5199C19.4023 15.4653 16.9972 17.3694 16.9313 19.7727C16.8655 22.176 19.1639 24.1685 22.065 24.223C24.9661 24.2776 27.3713 22.3735 27.4371 19.9702Z" fill="black"/>
<path d="M22.8635 23.8157C25.7653 23.8157 28.1177 21.8669 28.1177 19.463C28.1177 17.0591 25.7653 15.1103 22.8635 15.1103C19.9616 15.1103 17.6093 17.0591 17.6093 19.463C17.6093 21.8669 19.9616 23.8157 22.8635 23.8157Z" fill="url(#paint30_linear_38_7742)"/>
<path d="M22.8635 23.1879C25.5558 23.1879 27.7383 21.3798 27.7383 19.1495C27.7383 16.9192 25.5558 15.1112 22.8635 15.1112C20.1713 15.1112 17.9888 16.9192 17.9888 19.1495C17.9888 21.3798 20.1713 23.1879 22.8635 23.1879Z" fill="url(#paint31_linear_38_7742)"/>
<path style="mix-blend-mode:overlay" d="M22.8635 15.1127C21.5707 15.1128 20.3309 15.5383 19.4167 16.2956C18.5026 17.0529 17.9889 18.08 17.9888 19.151C17.9892 19.4077 18.0188 19.6637 18.0772 19.9158C17.9485 19.1757 18.082 18.4207 18.4615 17.7423C18.8411 17.064 19.4503 16.4916 20.2151 16.0946C20.98 15.6977 21.8675 15.4934 22.7699 15.5064C23.6723 15.5195 24.5507 15.7494 25.2983 16.1682C26.0459 16.5871 26.6306 17.1768 26.9813 17.8657C27.332 18.5546 27.4335 19.3131 27.2737 20.049C27.1138 20.7848 26.6994 21.4663 26.0808 22.0108C25.4622 22.5552 24.666 22.939 23.789 23.1156C24.979 22.9246 26.0404 22.3732 26.7661 21.569C27.4919 20.7648 27.8299 19.7654 27.7144 18.7659C27.5988 17.7664 27.0378 16.8383 26.1409 16.1629C25.2441 15.4874 24.0756 15.113 22.8635 15.1127Z" fill="url(#paint32_linear_38_7742)"/>
<path d="M22.8635 15.1127V20.0394L27.6568 19.8834C27.7871 19.3009 27.761 18.7017 27.5802 18.1284C27.3995 17.5552 27.0686 17.0219 26.6111 16.5666C26.1536 16.1112 25.5806 15.7448 24.9329 15.4936C24.2853 15.2423 23.5787 15.1123 22.8635 15.1127Z" fill="url(#paint33_linear_38_7742)"/>
<g style="mix-blend-mode:overlay">
<path d="M20.8171 17.8022L21.1777 16.7697H24.5121L25.1132 18.4371L24.3921 19.3079L25.1132 20.2287L24.6924 22.1825H20.9825L20.8171 21.1623H23.4006L23.6263 20.4156L23.3105 19.93H21.7937V18.9346H23.2806L23.6107 18.2378L23.2393 17.7822L20.8171 17.8022Z" fill="url(#paint34_linear_38_7742)"/>
<path d="M24.8336 22.3214H20.8361L20.6259 21.023H23.2709L23.4488 20.4342L23.2117 20.0689H21.6272V18.7957H23.1675L23.4236 18.255L23.152 17.9221L20.5944 17.9435L21.0536 16.6313H24.6395L25.2992 18.4614L24.5959 19.3108L25.2923 20.1997L24.8336 22.3214ZM21.1294 22.0436H24.5529L24.9369 20.2582L24.1906 19.307L24.9295 18.4138L24.3875 16.9095H21.3034L21.041 17.6624L23.3277 17.6434L23.799 18.2217L23.3972 19.0744H21.9619V19.7921H23.4115L23.8048 20.398L23.5321 21.3017H21.0095L21.1294 22.0436Z" fill="url(#paint35_linear_38_7742)"/>
</g>
<path d="M20.8168 17.6633L21.1773 16.6308H24.5117L25.1128 18.2983L24.3918 19.1691L25.1128 20.0898L24.692 22.0436H20.9821L20.8168 21.0234H23.4003L23.6259 20.2768L23.3101 19.7912H21.7933V18.7957H23.2803L23.6104 18.099L23.2389 17.6433L20.8168 17.6633Z" fill="url(#paint36_linear_38_7742)"/>
<g opacity="0.52">
<path d="M21.1773 16.9433H24.5117L25.0342 18.3929L25.1128 18.2983L24.5117 16.6308H21.1773L20.8168 17.6633L20.9264 17.6624L21.1773 16.9433Z" fill="url(#paint37_linear_38_7742)"/>
<path d="M21.7932 18.7957V19.1082H23.2801L23.6103 18.4114V18.0989L23.2801 18.7957H21.7932Z" fill="url(#paint38_linear_38_7742)"/>
<path d="M23.4001 21.3359L23.6258 20.5892L23.5609 20.4903L23.4001 21.0234H20.8167L20.8672 21.3359H23.4001Z" fill="url(#paint39_linear_38_7742)"/>
<path d="M24.3916 19.4815L25.0599 20.3352L25.1127 20.0898L24.3916 19.1691V19.4815Z" fill="url(#paint40_linear_38_7742)"/>
</g>
<path style="mix-blend-mode:screen" d="M26.1749 25.6772C37.7569 25.6772 47.146 21.7513 47.146 16.9086C47.146 12.0658 37.7569 8.13989 26.1749 8.13989C14.5929 8.13989 5.20386 12.0658 5.20386 16.9086C5.20386 21.7513 14.5929 25.6772 26.1749 25.6772Z" fill="url(#paint41_radial_38_7742)"/>
<defs>
<linearGradient id="paint0_linear_38_7742" x1="43.1198" y1="34.6874" x2="-4.94134" y2="32.0709" gradientUnits="userSpaceOnUse">
<stop stop-color="#E9C580"/>
<stop offset="1" stop-color="#D29E72"/>
</linearGradient>
<linearGradient id="paint1_linear_38_7742" x1="0.134562" y1="50.2715" x2="49.2336" y2="25.0538" gradientUnits="userSpaceOnUse">
<stop stop-color="#9F602E"/>
<stop offset="1" stop-color="#DAA052"/>
</linearGradient>
<linearGradient id="paint2_linear_38_7742" x1="2.85461" y1="46.7283" x2="49.4286" y2="46.7283" gradientUnits="userSpaceOnUse">
<stop/>
<stop offset="1" stop-color="#723C00"/>
</linearGradient>
<linearGradient id="paint3_linear_38_7742" x1="29.9491" y1="31.9161" x2="18.6174" y2="31.9161" gradientUnits="userSpaceOnUse">
<stop stop-color="#FEBE4A"/>
<stop offset="0.71" stop-color="#A66622"/>
<stop offset="1" stop-color="#6C3C00"/>
</linearGradient>
<radialGradient id="paint4_radial_38_7742" cx="0" cy="0" r="1" gradientUnits="userSpaceOnUse" gradientTransform="translate(26.664 32.7494) scale(10.9276 9.05259)">
<stop stop-color="#FAE060"/>
<stop offset="0.29" stop-color="#CE823A"/>
<stop offset="0.71" stop-color="#A66622"/>
<stop offset="1" stop-color="#6C3C00"/>
</radialGradient>
<linearGradient id="paint5_linear_38_7742" x1="21.1916" y1="31.2027" x2="15.169" y2="33.4394" gradientUnits="userSpaceOnUse">
<stop/>
<stop offset="1"/>
</linearGradient>
<linearGradient id="paint6_linear_38_7742" x1="26.7289" y1="28.7838" x2="19.5761" y2="28.8025" gradientUnits="userSpaceOnUse">
<stop stop-color="#CE823A"/>
<stop offset="0.59" stop-color="#A66622"/>
<stop offset="1" stop-color="#6C3C00"/>
</linearGradient>
<linearGradient id="paint7_linear_38_7742" x1="25.1152" y1="25.4018" x2="25.1152" y2="30.2558" gradientUnits="userSpaceOnUse">
<stop stop-color="#FEFEBE"/>
<stop offset="1" stop-color="white"/>
</linearGradient>
<linearGradient id="paint8_linear_38_7742" x1="21.4643" y1="28.3605" x2="21.4643" y2="32.5995" gradientUnits="userSpaceOnUse">
<stop/>
<stop offset="1"/>
</linearGradient>
<radialGradient id="paint9_radial_38_7742" cx="0" cy="0" r="1" gradientUnits="userSpaceOnUse" gradientTransform="translate(27.3641 11.7274) scale(23.7657 9.94339)">
<stop stop-color="#BA7000"/>
<stop offset="0.02" stop-color="#B16B00"/>
<stop offset="0.09" stop-color="#885200"/>
<stop offset="0.17" stop-color="#633C00"/>
<stop offset="0.26" stop-color="#442900"/>
<stop offset="0.35" stop-color="#2B1A00"/>
<stop offset="0.45" stop-color="#180E00"/>
<stop offset="0.57" stop-color="#0A0600"/>
<stop offset="0.72" stop-color="#020100"/>
<stop offset="1"/>
</radialGradient>
<linearGradient id="paint10_linear_38_7742" x1="29.3286" y1="26.8196" x2="19.6244" y2="26.8196" gradientUnits="userSpaceOnUse">
<stop stop-color="#CE823A"/>
<stop offset="0.38" stop-color="#A66622"/>
<stop offset="1" stop-color="#6C3C00"/>
</linearGradient>
<linearGradient id="paint11_linear_38_7742" x1="19.4703" y1="25.779" x2="19.4703" y2="30.3419" gradientUnits="userSpaceOnUse">
<stop/>
<stop offset="1"/>
</linearGradient>
<linearGradient id="paint12_linear_38_7742" x1="8.23915" y1="26.4334" x2="8.23915" y2="13.5708" gradientUnits="userSpaceOnUse">
<stop stop-color="#A46A2C"/>
<stop offset="0.41" stop-color="#82511B"/>
<stop offset="1" stop-color="#4A2A00"/>
</linearGradient>
<linearGradient id="paint13_linear_38_7742" x1="9.46659" y1="25.1664" x2="6.54521" y2="10.7163" gradientUnits="userSpaceOnUse">
<stop stop-color="#FAE28C"/>
<stop offset="0.35" stop-color="#CE823A"/>
<stop offset="0.71" stop-color="#A66622"/>
<stop offset="1" stop-color="#6C3C00"/>
</linearGradient>
<linearGradient id="paint14_linear_38_7742" x1="37.5715" y1="9.51676" x2="37.5715" y2="34.4773" gradientUnits="userSpaceOnUse">
<stop stop-color="#A46A2C"/>
<stop offset="0.41" stop-color="#82511B"/>
<stop offset="1" stop-color="#4A2A00"/>
</linearGradient>
<linearGradient id="paint15_linear_38_7742" x1="32.2123" y1="20.4493" x2="49.6585" y2="17.737" gradientUnits="userSpaceOnUse">
<stop stop-color="#FAE266"/>
<stop offset="0.5" stop-color="#CE823A"/>
<stop offset="1" stop-color="#A66622"/>
</linearGradient>
<radialGradient id="paint16_radial_38_7742" cx="0" cy="0" r="1" gradientUnits="userSpaceOnUse" gradientTransform="translate(27.2342 15.3533) scale(18.6264 15.4304)">
<stop stop-color="#FACC70"/>
<stop offset="0.29" stop-color="#CE9458"/>
<stop offset="0.71" stop-color="#A66622"/>
<stop offset="1" stop-color="#6C3C00"/>
</radialGradient>
<radialGradient id="paint17_radial_38_7742" cx="0" cy="0" r="1" gradientUnits="userSpaceOnUse" gradientTransform="translate(28.4571 15.0956) scale(10.9592 9.07875)">
<stop stop-color="#FFB256"/>
<stop offset="0.04" stop-color="#E29E4C"/>
<stop offset="0.1" stop-color="#B37D3C"/>
<stop offset="0.17" stop-color="#885F2E"/>
<stop offset="0.24" stop-color="#634521"/>
<stop offset="0.32" stop-color="#443017"/>
<stop offset="0.41" stop-color="#2B1E0F"/>
<stop offset="0.5" stop-color="#181108"/>
<stop offset="0.61" stop-color="#0A0703"/>
<stop offset="0.74" stop-color="#020201"/>
<stop offset="1"/>
</radialGradient>
<radialGradient id="paint18_radial_38_7742" cx="0" cy="0" r="1" gradientUnits="userSpaceOnUse" gradientTransform="translate(28.3492 14.0418) scale(10.9592 9.07875)">
<stop stop-color="#FFB256"/>
<stop offset="0.04" stop-color="#E29E4C"/>
<stop offset="0.1" stop-color="#B37D3C"/>
<stop offset="0.17" stop-color="#885F2E"/>
<stop offset="0.24" stop-color="#634521"/>
<stop offset="0.32" stop-color="#443017"/>
<stop offset="0.41" stop-color="#2B1E0F"/>
<stop offset="0.5" stop-color="#181108"/>
<stop offset="0.61" stop-color="#0A0703"/>
<stop offset="0.74" stop-color="#020201"/>
<stop offset="1"/>
</radialGradient>
<radialGradient id="paint19_radial_38_7742" cx="0" cy="0" r="1" gradientUnits="userSpaceOnUse" gradientTransform="translate(23.5125 12.9849) scale(10.9592 9.07875)">
<stop stop-color="#FFB256"/>
<stop offset="0.04" stop-color="#E29E4C"/>
<stop offset="0.1" stop-color="#B37D3C"/>
<stop offset="0.17" stop-color="#885F2E"/>
<stop offset="0.24" stop-color="#634521"/>
<stop offset="0.32" stop-color="#443017"/>
<stop offset="0.41" stop-color="#2B1E0F"/>
<stop offset="0.5" stop-color="#181108"/>
<stop offset="0.61" stop-color="#0A0703"/>
<stop offset="0.74" stop-color="#020201"/>
<stop offset="1"/>
</radialGradient>
<linearGradient id="paint20_linear_38_7742" x1="26.018" y1="13.2245" x2="26.018" y2="22.5096" gradientUnits="userSpaceOnUse">
<stop stop-color="#F2ECFF"/>
<stop offset="1" stop-color="white"/>
</linearGradient>
<linearGradient id="paint21_linear_38_7742" x1="13.5486" y1="16.5395" x2="15.8464" y2="24.7107" gradientUnits="userSpaceOnUse">
<stop stop-color="#3A1800"/>
<stop offset="1"/>
</linearGradient>
<linearGradient id="paint22_linear_38_7742" x1="9.11536" y1="14.3593" x2="35.6616" y2="14.3593" gradientUnits="userSpaceOnUse">
<stop stop-color="#482C12"/>
<stop offset="0.34" stop-color="#44270F"/>
<stop offset="0.77" stop-color="#381706"/>
<stop offset="1" stop-color="#300C00"/>
</linearGradient>
<linearGradient id="paint23_linear_38_7742" x1="17.8078" y1="13.8651" x2="19.2237" y2="23.4602" gradientUnits="userSpaceOnUse">
<stop/>
<stop offset="1"/>
</linearGradient>
<radialGradient id="paint24_radial_38_7742" cx="0" cy="0" r="1" gradientUnits="userSpaceOnUse" gradientTransform="translate(30.8976 11.4919) scale(28.1072 23.2845)">
<stop stop-color="#FAE28C"/>
<stop offset="0.35" stop-color="#CE823A"/>
<stop offset="0.71" stop-color="#A66622"/>
<stop offset="1" stop-color="#6C3C00"/>
</radialGradient>
<radialGradient id="paint25_radial_38_7742" cx="0" cy="0" r="1" gradientUnits="userSpaceOnUse" gradientTransform="translate(31.0705 9.98759) scale(9.53021 7.89498)">
<stop stop-color="#FFB256"/>
<stop offset="0.04" stop-color="#E29E4C"/>
<stop offset="0.1" stop-color="#B37D3C"/>
<stop offset="0.17" stop-color="#885F2E"/>
<stop offset="0.24" stop-color="#634521"/>
<stop offset="0.32" stop-color="#443017"/>
<stop offset="0.41" stop-color="#2B1E0F"/>
<stop offset="0.5" stop-color="#181108"/>
<stop offset="0.61" stop-color="#0A0703"/>
<stop offset="0.74" stop-color="#020201"/>
<stop offset="1"/>
</radialGradient>
<linearGradient id="paint26_linear_38_7742" x1="32.5707" y1="9.42681" x2="32.5707" y2="13.2074" gradientUnits="userSpaceOnUse">
<stop stop-color="#FEFEBE"/>
<stop offset="1" stop-color="white"/>
</linearGradient>
<linearGradient id="paint27_linear_38_7742" x1="7.47412" y1="10.7695" x2="38.6655" y2="10.7695" gradientUnits="userSpaceOnUse">
<stop stop-color="#FEFEFF"/>
<stop offset="0.12" stop-color="#FEFEFF"/>
<stop offset="0.54" stop-color="#FEFEFF"/>
<stop offset="1" stop-color="#FEFEFF"/>
</linearGradient>
<linearGradient id="paint28_linear_38_7742" x1="32.094" y1="13.5322" x2="18.1305" y2="13.5322" gradientUnits="userSpaceOnUse">
<stop stop-color="#6A2C12"/>
<stop offset="0.24" stop-color="#652910"/>
<stop offset="0.54" stop-color="#55200B"/>
<stop offset="0.88" stop-color="#3B1204"/>
<stop offset="1" stop-color="#300C00"/>
</linearGradient>
<linearGradient id="paint29_linear_38_7742" x1="32.0945" y1="13.9736" x2="18.1305" y2="13.9736" gradientUnits="userSpaceOnUse">
<stop stop-color="#A46A2C"/>
<stop offset="0.41" stop-color="#82511B"/>
<stop offset="1" stop-color="#4A2A00"/>
</linearGradient>
<linearGradient id="paint30_linear_38_7742" x1="25.4183" y1="16.7383" x2="21.807" y2="22.3513" gradientUnits="userSpaceOnUse">
<stop stop-color="#C4903C"/>
<stop offset="0.31" stop-color="#A1732B"/>
<stop offset="1" stop-color="#4A2A00"/>
</linearGradient>
<linearGradient id="paint31_linear_38_7742" x1="24.13" y1="15.3091" x2="21.8584" y2="25.3475" gradientUnits="userSpaceOnUse">
<stop stop-color="#FAE28C"/>
<stop offset="0.57" stop-color="#CE823A"/>
<stop offset="1" stop-color="#A66622"/>
</linearGradient>
<linearGradient id="paint32_linear_38_7742" x1="25.3069" y1="15.6744" x2="21.2639" y2="24.0531" gradientUnits="userSpaceOnUse">
<stop stop-color="#FEFEFF"/>
<stop offset="0.12" stop-color="#FEFEFF"/>
<stop offset="0.54" stop-color="#FEFEFF"/>
<stop offset="1" stop-color="#FEFEFF"/>
</linearGradient>
<linearGradient id="paint33_linear_38_7742" x1="26.6699" y1="15.9369" x2="24.3503" y2="19.6771" gradientUnits="userSpaceOnUse">
<stop stop-color="#F2ECFF"/>
<stop offset="0.48" stop-color="#FAF8FF"/>
<stop offset="1" stop-color="white"/>
</linearGradient>
<linearGradient id="paint34_linear_38_7742" x1="20.8171" y1="19.4758" x2="25.1132" y2="19.4758" gradientUnits="userSpaceOnUse">
<stop stop-color="#FEFEFF"/>
<stop offset="0.12" stop-color="#FEFEFF"/>
<stop offset="0.54" stop-color="#FEFEFF"/>
<stop offset="1" stop-color="#FEFEFF"/>
</linearGradient>
<linearGradient id="paint35_linear_38_7742" x1="20.5938" y1="19.4759" x2="25.2975" y2="19.4759" gradientUnits="userSpaceOnUse">
<stop stop-color="#FEFEFF"/>
<stop offset="0.12" stop-color="#FEFEFF"/>
<stop offset="0.54" stop-color="#FEFEFF"/>
<stop offset="1" stop-color="#FEFEFF"/>
</linearGradient>
<linearGradient id="paint36_linear_38_7742" x1="22.9645" y1="24.7897" x2="22.9645" y2="16.647" gradientUnits="userSpaceOnUse">
<stop stop-color="#A46A2C"/>
<stop offset="0.41" stop-color="#82511B"/>
<stop offset="1" stop-color="#4A2A00"/>
</linearGradient>
<linearGradient id="paint37_linear_38_7742" x1="22.9645" y1="19.287" x2="22.9645" y2="16.636" gradientUnits="userSpaceOnUse">
<stop stop-color="#482C12"/>
<stop offset="0.34" stop-color="#44270F"/>
<stop offset="0.77" stop-color="#381706"/>
<stop offset="1" stop-color="#300C00"/>
</linearGradient>
<linearGradient id="paint38_linear_38_7742" x1="22.702" y1="19.6204" x2="22.702" y2="18.1018" gradientUnits="userSpaceOnUse">
<stop stop-color="#482C12"/>
<stop offset="0.34" stop-color="#44270F"/>
<stop offset="0.77" stop-color="#381706"/>
<stop offset="1" stop-color="#300C00"/>
</linearGradient>
<linearGradient id="paint39_linear_38_7742" x1="22.2209" y1="21.7649" x2="22.2209" y2="20.4927" gradientUnits="userSpaceOnUse">
<stop stop-color="#482C12"/>
<stop offset="0.34" stop-color="#44270F"/>
<stop offset="0.77" stop-color="#381706"/>
<stop offset="1" stop-color="#300C00"/>
</linearGradient>
<linearGradient id="paint40_linear_38_7742" x1="24.7521" y1="20.9264" x2="24.7521" y2="19.1724" gradientUnits="userSpaceOnUse">
<stop stop-color="#482C12"/>
<stop offset="0.34" stop-color="#44270F"/>
<stop offset="0.77" stop-color="#381706"/>
<stop offset="1" stop-color="#300C00"/>
</linearGradient>
<radialGradient id="paint41_radial_38_7742" cx="0" cy="0" r="1" gradientUnits="userSpaceOnUse" gradientTransform="translate(26.0977 16.9732) scale(20.8318 8.71587)">
<stop stop-color="#BA7000"/>
<stop offset="0.02" stop-color="#B16B00"/>
<stop offset="0.09" stop-color="#885200"/>
<stop offset="0.17" stop-color="#633C00"/>
<stop offset="0.26" stop-color="#442900"/>
<stop offset="0.35" stop-color="#2B1A00"/>
<stop offset="0.45" stop-color="#180E00"/>
<stop offset="0.57" stop-color="#0A0600"/>
<stop offset="0.72" stop-color="#020100"/>
<stop offset="1"/>
</radialGradient>
</defs>
</svg>
