<svg width="50" height="48" viewBox="0 0 50 48" fill="none" xmlns="http://www.w3.org/2000/svg">
<path d="M39.0545 30.191H24.7151H23.5834H9.24393L3.67932 31.7596H23.5834H24.7151H44.6192L39.0545 30.191Z" fill="url(#paint0_linear_38_6570)"/>
<path opacity="0.43" d="M25.54 31.2381C25.54 31.2381 17.8458 31.7596 14.5537 31.7596H3.67578L9.24124 30.191H22.0338L25.54 31.2381Z" fill="#401E00"/>
<path d="M25.7012 27.598L24.0568 27.7028L22.4125 27.598C22.4125 27.598 19.5454 27.7583 17.124 29.4349C17.124 29.4349 18.7869 30.0699 24.0577 30.0699C29.3284 30.0699 30.99 29.4366 30.99 29.4366C28.569 27.7601 25.7012 27.598 25.7012 27.598Z" fill="url(#paint1_linear_38_6570)"/>
<path style="mix-blend-mode:overlay" opacity="0.54" d="M24.0558 29.8583C19.8396 29.8583 17.9342 29.4524 17.3389 29.2896C17.2664 29.3368 17.1939 29.385 17.1222 29.4349C17.1222 29.4349 18.7851 30.0699 24.0558 30.0699C29.3266 30.0699 30.9899 29.4367 30.9899 29.4367C30.9178 29.3867 30.8453 29.3385 30.7727 29.2914C30.1778 29.4524 28.2712 29.8583 24.0558 29.8583Z" fill="url(#paint2_linear_38_6570)"/>
<path d="M30.9839 29.4367C30.8709 29.4776 29.1456 30.0693 24.0566 30.0693C18.7863 30.0693 17.1234 29.4343 17.123 29.4343L16.7334 30.517C16.7334 30.517 18.8913 31.2481 23.9828 31.2617H24.1241C29.2156 31.2481 31.3735 30.517 31.3735 30.517L30.9839 29.4367Z" fill="url(#paint3_linear_38_6570)"/>
<path opacity="0.36" d="M17.1252 29.4366C17.1252 29.4366 20.629 28.2421 24.5834 28.2515C24.5834 28.2515 25.6459 28.0196 25.4022 27.6186L24.0576 27.7028L22.4133 27.598C22.4133 27.598 19.5462 27.7583 17.1257 29.4342L17.1252 29.4366Z" fill="#401E00"/>
<path style="mix-blend-mode:screen" d="M27.3026 33.1577C32.2039 32.8296 36.0356 31.1126 35.861 29.3227C35.6864 27.5328 31.5716 26.3478 26.6703 26.6759C21.769 27.004 17.9373 28.721 18.1119 30.5109C18.2865 32.3008 22.4013 33.4858 27.3026 33.1577Z" fill="url(#paint4_radial_38_6570)"/>
<path d="M26.9553 23.5304C26.6791 23.4822 25.7693 23.4036 24.603 23.3861H24.5364H24.3796H23.9183H23.7619H23.6949C22.5287 23.4036 21.6188 23.4822 21.3426 23.5304C21.2806 23.5374 21.2187 23.5444 21.1571 23.5524L22.1736 27.865C22.1736 27.865 22.5607 28.173 23.6843 28.2492L23.716 28.2516H23.7197C23.853 28.2607 23.9959 28.2656 24.149 28.2649C24.302 28.2642 24.4441 28.2607 24.5782 28.2516H24.582L24.6136 28.2492C25.7372 28.1748 26.1243 27.865 26.1243 27.865L27.1408 23.5524C27.0793 23.5444 27.0173 23.5374 26.9553 23.5304Z" fill="url(#paint5_linear_38_6570)"/>
<path style="mix-blend-mode:overlay" opacity="0.58" d="M25.1 28.1951C25.8496 28.0812 26.1237 27.865 26.1237 27.865L27.1402 23.5524C27.0787 23.5444 27.0167 23.5374 26.9547 23.5304C26.7764 23.4993 26.3324 23.4557 25.7265 23.4235L25.2927 23.6383L25.1 28.1951Z" fill="url(#paint6_linear_38_6570)"/>
<path style="mix-blend-mode:overlay" opacity="0.35" d="M23.2994 23.5339L22.8685 23.4092C22.1096 23.441 21.5492 23.4941 21.3426 23.5301C21.2806 23.537 21.2187 23.544 21.1571 23.5521L22.1736 27.865C22.1736 27.865 22.5607 28.1731 23.6843 28.2492L23.716 28.2516H23.7197C23.7316 28.2516 23.7446 28.2516 23.7568 28.2537L23.2994 23.5339Z" fill="url(#paint7_linear_38_6570)"/>
<path d="M29.5546 23.1913L24.1489 23.383L18.7433 23.1913L18.9887 24.0994C18.9887 24.0994 21.2233 24.6583 24.1485 24.6583C27.075 24.6583 29.3084 24.0994 29.3084 24.0994L29.5546 23.1913Z" fill="url(#paint8_linear_38_6570)"/>
<path style="mix-blend-mode:overlay" opacity="0.2" d="M22.4144 23.3216L18.7433 23.1913L18.9887 24.0994C18.9887 24.0994 20.4787 24.4725 22.6193 24.6094L22.4144 23.3216Z" fill="url(#paint9_linear_38_6570)"/>
<path d="M44.6193 31.7595H24.4613H23.8378H3.67942L0.284912 48H23.8378H24.4613H48.0138L44.6193 31.7595Z" fill="url(#paint10_linear_38_6570)"/>
<g style="mix-blend-mode:overlay" opacity="0.56">
<path d="M23.8295 32.0658H24.4695H44.6835L44.6194 31.7595H24.4615H23.8379H3.67957L3.61548 32.0658H23.8295Z" fill="white"/>
</g>
<path d="M11.5465 14.2744L4.30298 15.476V16.1124L7.61147 20.9789L9.71243 21.755L13.5454 21.1298L13.1322 19.9279L10.1712 20.2782L8.7701 19.8046L6.68432 16.8319L7.48499 15.9419L12.106 16.4354L11.5465 14.2744Z" fill="url(#paint11_linear_38_6570)"/>
<path d="M11.3243 13.6196L6.48868 13.1233L4.30298 15.476L7.50986 20.3922L9.54631 21.1766L13.2621 20.5451L12.8616 19.3307L9.99113 19.6845L8.63307 19.2063L6.61096 16.2029L7.38717 15.3038L11.8665 15.8022L11.3243 13.6196Z" fill="url(#paint12_linear_38_6570)"/>
<g opacity="0.28">
<path d="M8.63314 19.2063L6.7236 16.3694L6.61145 16.4994L8.63314 19.5028L9.9912 19.981L12.9556 19.6153L12.8616 19.3307L9.9912 19.6845L8.63314 19.2063Z" fill="#FFFF00"/>
<path d="M6.48868 13.4198L11.4002 13.9238L11.3243 13.6196L6.48868 13.1233L4.30298 15.476L4.41682 15.6503L6.48868 13.4198Z" fill="#FFFF00"/>
</g>
<g opacity="0.23">
<path d="M10.7696 16.2926L12.1057 16.4351L11.5462 14.2745L11.4893 14.2839L11.3999 13.9238L11.3241 13.6196L10.1949 13.5036L10.7696 16.2926Z" fill="#401E00"/>
<path d="M13.1321 19.9278L13.0609 19.9362L12.9555 19.6152L12.8614 19.3305L11.4321 19.5065L11.8242 21.4105L13.5453 21.1297L13.1321 19.9278Z" fill="#401E00"/>
</g>
<path d="M36.6062 14.2744L43.8498 15.476V16.1124L40.5417 20.9789L38.4407 21.755L34.6073 21.1298L35.0209 19.9279L37.9816 20.2782L39.3826 19.8046L41.4688 16.8319L40.6682 15.9419L36.0467 16.4354L36.6062 14.2744Z" fill="url(#paint13_linear_38_6570)"/>
<path d="M36.8285 13.6196L41.6642 13.1233L43.8499 15.476L40.643 20.3922L38.6065 21.1766L34.8907 20.5451L35.2917 19.3307L38.1617 19.6845L39.5198 19.2063L41.5419 16.2029L40.7657 15.3038L36.2863 15.8022L36.8285 13.6196Z" fill="url(#paint14_linear_38_6570)"/>
<g opacity="0.28">
<path d="M39.5198 19.2063L41.4298 16.3694L41.542 16.4994L39.5198 19.5028L38.1618 19.981L35.1978 19.6153L35.2918 19.3307L38.1618 19.6845L39.5198 19.2063Z" fill="white"/>
<path d="M41.6643 13.4198L36.7532 13.9238L36.8286 13.6196L41.6643 13.1232L43.85 15.476L43.7366 15.6503L41.6643 13.4198Z" fill="white"/>
</g>
<g opacity="0.29">
<path d="M36.4636 19.4748L35.2923 19.3305L35.1983 19.6152L35.0925 19.9362L35.0216 19.9278L34.608 21.1297L36.0416 21.3637L36.4636 19.4748Z" fill="#401E00"/>
<path d="M36.7535 13.9237L36.6641 14.2838L36.6067 14.2744L36.0472 16.435L37.1688 16.3156L37.7932 13.5206L36.8289 13.6195L36.7535 13.9237Z" fill="#401E00"/>
</g>
<path d="M37.5913 11.585C37.5913 10.5962 31.573 9.79462 24.1486 9.79462C16.7242 9.79462 10.7059 10.598 10.7059 11.585C10.7066 11.625 10.7164 11.6645 10.735 11.7013C10.9779 12.6713 12.6901 19.4474 13.4267 20.8445C14.1983 22.3076 18.4343 23.5926 23.9125 23.6628V23.6663C23.9918 23.6663 24.0698 23.6663 24.1486 23.6663C24.2275 23.6663 24.3055 23.6663 24.3847 23.6663V23.6628C29.8629 23.593 34.0994 22.3076 34.871 20.8445C35.6071 19.4474 37.3194 12.6713 37.5622 11.7024C37.5808 11.6655 37.5907 11.626 37.5913 11.5861V11.585Z" fill="url(#paint15_radial_38_6570)"/>
<path style="mix-blend-mode:screen" d="M29.34 21.3638C35.2064 21.3638 39.962 17.4241 39.962 12.5643C39.962 7.70454 35.2064 3.76489 29.34 3.76489C23.4737 3.76489 18.718 7.70454 18.718 12.5643C18.718 17.4241 23.4737 21.3638 29.34 21.3638Z" fill="url(#paint16_radial_38_6570)"/>
<path style="mix-blend-mode:screen" d="M29.2353 20.3487C35.1017 20.3487 39.8573 16.4091 39.8573 11.5493C39.8573 6.68949 35.1017 2.74985 29.2353 2.74985C23.3689 2.74985 18.6133 6.68949 18.6133 11.5493C18.6133 16.4091 23.3689 20.3487 29.2353 20.3487Z" fill="url(#paint17_radial_38_6570)"/>
<path style="mix-blend-mode:screen" d="M24.5755 19.3306C30.4419 19.3306 35.1975 15.391 35.1975 10.5312C35.1975 5.6714 30.4419 1.73175 24.5755 1.73175C18.7091 1.73175 13.9535 5.6714 13.9535 10.5312C13.9535 15.391 18.7091 19.3306 24.5755 19.3306Z" fill="url(#paint18_radial_38_6570)"/>
<path style="mix-blend-mode:overlay" d="M28.883 10.8004C28.883 10.8004 28.0351 17.9635 27.5101 19.6659C26.9852 21.3683 23.1771 23.6966 18.7433 23.1912C20.2544 23.4657 22.0079 23.6372 23.9124 23.6617V23.6648C23.9917 23.6648 24.0697 23.6648 24.1485 23.6648C24.2274 23.6648 24.3054 23.6648 24.3846 23.6648V23.6617C26.2259 23.6379 27.9263 23.4766 29.402 23.2181C29.5226 23.1832 32.4921 22.3386 33.2434 19.5695C34.0108 16.7428 35.2343 11.6824 35.2343 11.6824L28.883 10.8004Z" fill="url(#paint19_linear_38_6570)"/>
<path style="mix-blend-mode:overlay" opacity="0.31" d="M17.6193 20.3444C17.1437 19.2903 15.9826 12.4224 15.6259 10.2684C12.6222 10.5967 10.7059 11.0951 10.7059 11.6529C10.7066 11.693 10.7164 11.7326 10.735 11.7696C10.9779 12.7385 12.6901 19.5152 13.4267 20.9117C14.1687 22.3196 18.1206 23.5617 23.299 23.7161C19.1772 23.1369 18.1843 21.5966 17.6193 20.3444Z" fill="url(#paint20_linear_38_6570)"/>
<path style="mix-blend-mode:overlay" opacity="0.14" d="M24.6175 20.7536C24.3405 19.6184 23.4791 10.7991 23.4791 10.7991L23.3805 9.797C19.746 9.82738 16.5037 10.0499 14.2202 10.3908V10.447C14.6576 10.383 15.1277 10.3235 15.6306 10.2685C15.9868 12.4225 17.1484 19.2905 17.6236 20.3446C18.1603 21.5322 19.0849 22.9824 22.7063 23.6209C23.1279 23.6418 23.5592 23.6558 23.999 23.6617V23.6652C24.0782 23.6652 24.1567 23.6652 24.2355 23.6652C24.3144 23.6652 24.3924 23.6652 24.4716 23.6652V23.6617C24.9801 23.655 25.4772 23.6382 25.9629 23.6114C25.5421 22.8818 24.8115 21.5482 24.6175 20.7536Z" fill="url(#paint21_linear_38_6570)"/>
<path opacity="0.19" d="M10.7059 11.585C10.7066 11.625 10.7164 11.6645 10.735 11.7013C10.8126 12.0115 11.0407 12.9154 11.3388 14.0471C18.5427 10.8777 35.234 11.6825 35.234 11.6825L36.2796 10.8128C34.1146 10.2106 29.4965 9.79462 24.1486 9.79462C16.7246 9.79462 10.7059 10.5962 10.7059 11.585Z" fill="#463000"/>
<path opacity="0.19" d="M28.2455 14.8575L23.3555 12.5376L18.4655 14.8575L18.3352 15.357L18.6329 19.8746L23.3555 22.1334L28.0781 19.8746L28.3758 15.357L28.2455 14.8575Z" fill="#463000"/>
<path d="M28.9225 19.3971L29.14 15.1516L28.8976 14.5361L24.0076 12.6535L19.1175 14.5361L18.9384 15.2239L19.1175 19.4732L24.0076 21.812L28.9225 19.3971Z" fill="url(#paint22_linear_38_6570)"/>
<path d="M28.6076 18.9367L28.8977 14.5361L24.0077 12.2162L19.1177 14.5361L19.4078 18.9367L24.0077 21.1368L28.6076 18.9367Z" fill="url(#paint23_linear_38_6570)"/>
<path style="mix-blend-mode:overlay" d="M24.0077 12.2162L19.1177 14.5361L19.1379 14.8424L23.7374 12.6598L28.4875 14.9137L28.21 19.1267L28.6076 18.9367L28.8977 14.5361L24.0077 12.2162Z" fill="url(#paint24_linear_38_6570)"/>
<path style="mix-blend-mode:overlay" d="M24.0074 12.2162L23.0503 16.9179L24.776 17.593L28.8974 14.5361L24.0074 12.2162Z" fill="url(#paint25_linear_38_6570)"/>
<path style="mix-blend-mode:overlay" d="M22.0999 15.6935H23.3905L23.1729 19.9181H25.1162L24.7628 14.7861H22.6024L22.0999 15.6935Z" fill="url(#paint26_linear_38_6570)"/>
<path d="M22.0999 15.4676H23.3905L23.1729 19.6922H25.1162L24.7628 14.5602H22.6024L22.0999 15.4676Z" fill="url(#paint27_linear_38_6570)"/>
<path opacity="0.51" d="M22.6024 14.9046H24.7628L25.0921 19.6922H25.1157L24.7628 14.5602H22.6024L22.0999 15.4676H22.2904L22.6024 14.9046Z" fill="black"/>
<path d="M24.1493 7.08273C15.8517 7.08273 9.12463 8.21545 9.12463 9.61293C9.1252 9.66885 9.1363 9.72435 9.15752 9.77744C9.22878 10.1382 9.41429 11.0673 9.66347 12.2769C11.4136 11.206 17.2359 10.4194 24.1497 10.4194C31.0635 10.4194 36.8857 11.206 38.6359 12.2769C38.8851 11.0673 39.0702 10.1382 39.1418 9.77744C39.1627 9.7243 39.1737 9.66882 39.1743 9.61293C39.1739 8.21615 32.4473 7.08273 24.1493 7.08273Z" fill="url(#paint28_radial_38_6570)"/>
<path style="mix-blend-mode:screen" d="M31.8567 15.3048C36.9583 15.3048 41.0941 11.8787 41.0941 7.65241C41.0941 3.4261 36.9583 0 31.8567 0C26.755 0 22.6193 3.4261 22.6193 7.65241C22.6193 11.8787 26.755 15.3048 31.8567 15.3048Z" fill="url(#paint29_radial_38_6570)"/>
<path style="mix-blend-mode:overlay" d="M30.2848 7.30304L29.8278 10.5545L30.924 10.6921C32.4735 10.8241 33.869 10.9998 35.0525 11.2101L35.9637 11.3243L36.7791 8.24226C35.2064 7.83255 32.9516 7.50423 30.2848 7.30304Z" fill="url(#paint30_linear_38_6570)"/>
<path opacity="0.14" d="M18.7638 7.25067C13.1267 7.61567 9.12463 8.53568 9.12463 9.61356C9.1252 9.66948 9.1363 9.72499 9.15752 9.77807C9.22878 10.1389 9.41387 11.068 9.66347 12.2775C10.9705 11.4787 14.5417 10.8381 19.1425 10.5661L18.7638 7.25067Z" fill="#563A00"/>
<path style="mix-blend-mode:overlay" d="M24.1493 7.08273C15.8517 7.08273 9.12463 8.21545 9.12463 9.61293C9.1252 9.66885 9.1363 9.72435 9.15752 9.77744C9.16089 9.79665 9.16553 9.81796 9.16975 9.83996C9.76635 8.5347 16.245 7.50641 24.1493 7.50641C32.0535 7.50641 38.5322 8.53574 39.1288 9.84206C39.133 9.82005 39.1376 9.79875 39.141 9.77954C39.1622 9.72645 39.1733 9.67094 39.1739 9.61502C39.1739 8.21615 32.4473 7.08273 24.1493 7.08273Z" fill="url(#paint31_linear_38_6570)"/>
<path opacity="0.2" d="M24.0425 9.93314C12.3922 9.93314 10.0121 11.4441 9.62 12.0672C9.63377 12.1371 9.64782 12.207 9.66216 12.2768C11.4123 11.2059 17.2346 10.4193 24.1484 10.4193C31.0622 10.4193 36.8844 11.2059 38.6346 12.2768C38.6489 12.207 38.663 12.1371 38.6767 12.0672C38.2796 11.4487 35.7098 9.93314 24.0425 9.93314Z" fill="#563000"/>
<path d="M38.5924 12.1445C38.3087 11.6516 35.9548 10.2968 24.0438 10.2968C12.1329 10.2968 9.98936 11.6516 9.70519 12.1445C9.42101 12.6373 11.0156 12.8018 11.0156 12.8018L10.8469 12.1445C14.8798 11.0642 21.7493 10.9587 24.148 10.9569C26.5466 10.9552 33.4161 11.0645 37.449 12.1445L37.2803 12.8018C37.2803 12.8018 38.8766 12.6363 38.5924 12.1445Z" fill="url(#paint32_linear_38_6570)"/>
<path d="M8.3252 13.3119L8.08951 13.584L3.98035 28.5269L7.85172 26.9391L10.9768 29.4351L10.7065 13.8526L10.6176 13.547L8.3252 13.3119Z" fill="url(#paint33_linear_38_6570)"/>
<path d="M8.85781 13.367L8.64151 13.6467L5.72302 26.3651L8.11322 25.4182L9.94897 26.9104L10.2606 13.812L10.1952 13.5035L8.85781 13.367Z" fill="url(#paint34_linear_38_6570)"/>
<g opacity="0.41">
<path d="M7.90463 25.2562L5.78512 26.0959L5.72314 26.3652L8.10702 25.4207L7.90463 25.2562Z" fill="#620000"/>
<path d="M10.1949 13.5035L10.017 13.4854L10.0516 13.6495L9.73999 26.7409L9.94869 26.9103L10.2603 13.8119L10.1949 13.5035Z" fill="#620000"/>
</g>
<g style="mix-blend-mode:overlay">
<path d="M8.08923 13.584L10.7063 13.8526L10.6173 13.547L8.32493 13.3119L8.08923 13.584Z" fill="white"/>
</g>
<path d="M39.7877 13.297L40.0234 13.5695L44.1326 28.5124L40.2608 26.9246L37.1361 29.4206L37.4064 13.8381L37.4949 13.5324L39.7877 13.297Z" fill="url(#paint35_linear_38_6570)"/>
<path d="M39.2539 13.3528L39.4702 13.6326L42.3883 26.3509L39.9985 25.404L38.1628 26.8962L37.8512 13.7978L37.9166 13.4894L39.2539 13.3528Z" fill="url(#paint36_linear_38_6570)"/>
<path opacity="0.24" d="M39.4698 13.6326L39.2536 13.3528L39.0014 13.3786L39.0718 13.4701L41.9899 26.1882L39.6001 25.2413L38.151 26.4194L38.1624 26.8962L39.9981 25.404L42.3879 26.3509L39.4698 13.6326Z" fill="#620000"/>
<g style="mix-blend-mode:overlay">
<path d="M40.0228 13.5695L37.4058 13.8381L37.4943 13.5324L39.7871 13.297L40.0228 13.5695Z" fill="white"/>
</g>
<path style="mix-blend-mode:overlay" opacity="0.34" d="M0.799293 45.5393H47.4994L48.0138 48H0.284912L0.799293 45.5393Z" fill="url(#paint37_linear_38_6570)"/>
<path style="mix-blend-mode:screen" d="M27.9275 16.6538C38.1448 16.6538 46.4275 13.1905 46.4275 8.91824C46.4275 4.64602 38.1448 1.18271 27.9275 1.18271C17.7101 1.18271 9.42737 4.64602 9.42737 8.91824C9.42737 13.1905 17.7101 16.6538 27.9275 16.6538Z" fill="url(#paint38_radial_38_6570)"/>
<path style="mix-blend-mode:screen" d="M26.1205 22.2111C36.3378 22.2111 44.6205 18.7478 44.6205 14.4756C44.6205 10.2033 36.3378 6.74002 26.1205 6.74002C15.9031 6.74002 7.62036 10.2033 7.62036 14.4756C7.62036 18.7478 15.9031 22.2111 26.1205 22.2111Z" fill="url(#paint39_radial_38_6570)"/>
<path style="mix-blend-mode:screen" opacity="0.72" d="M12.6442 32.1203C14.4564 31.23 14.1712 28.0579 12.0073 25.0351C9.84341 22.0124 6.62016 20.2837 4.80798 21.1741C2.99579 22.0644 3.28093 25.2365 5.44484 28.2592C7.60876 31.2819 10.832 33.0106 12.6442 32.1203Z" fill="url(#paint40_radial_38_6570)"/>
<path style="mix-blend-mode:screen" opacity="0.72" d="M46.6204 31.8404C48.4326 30.9501 48.1474 27.778 45.9835 24.7553C43.8196 21.7325 40.5964 20.0039 38.7842 20.8942C36.972 21.7845 37.2571 24.9566 39.421 27.9793C41.585 31.0021 44.8082 32.7307 46.6204 31.8404Z" fill="url(#paint41_radial_38_6570)"/>
<path style="mix-blend-mode:screen" d="M35.6582 13.3653C32.507 14.4044 28.8549 13.2574 27.501 10.8037C26.1472 8.34999 27.5988 5.51767 30.7501 4.47716C33.9013 3.43665 37.553 4.58648 38.9072 7.03914C40.2615 9.49179 38.809 12.3266 35.6582 13.3653Z" fill="url(#paint42_radial_38_6570)"/>
<path style="mix-blend-mode:screen" d="M24.946 15.3852C24.6162 15.1127 26.5405 13.0485 29.2436 10.7747C31.9466 8.50085 34.4072 6.88019 34.7369 7.15263C35.0666 7.42507 33.1436 9.48862 30.4397 11.7631C27.7358 14.0377 25.2773 15.6587 24.946 15.3852Z" fill="url(#paint43_radial_38_6570)"/>
<path style="mix-blend-mode:screen" d="M41.6602 1.53963C41.3309 1.26615 38.8399 2.85992 36.0947 5.09916C33.3495 7.33841 31.394 9.37681 31.7233 9.64995C32.0526 9.92309 34.5427 8.33036 37.2888 6.09077C40.0348 3.85118 41.9899 1.81417 41.6602 1.53963Z" fill="url(#paint44_radial_38_6570)"/>
<path style="mix-blend-mode:screen" d="M41.1584 14.9692C40.7882 15.2773 38.3976 13.8267 35.8202 11.7293C33.2428 9.63182 31.4542 7.68248 31.8257 7.37476C32.1971 7.06705 34.5856 8.51587 37.1635 10.6133C39.7413 12.7107 41.5315 14.6622 41.1584 14.9692Z" fill="url(#paint45_radial_38_6570)"/>
<path style="mix-blend-mode:screen" d="M25.4864 1.98496C25.1137 2.29128 26.8651 4.27171 29.3966 6.40652C31.928 8.54132 34.2815 10.0233 34.6534 9.71631C35.0253 9.40929 33.2759 7.42921 30.7441 5.29371C28.2122 3.1582 25.8583 1.6769 25.4864 1.98496Z" fill="url(#paint46_radial_38_6570)"/>
<defs>
<linearGradient id="paint0_linear_38_6570" x1="43.9264" y1="30.9755" x2="0.182782" y2="30.9755" gradientUnits="userSpaceOnUse">
<stop stop-color="#FFFFCC"/>
<stop offset="1" stop-color="#E28E00"/>
</linearGradient>
<linearGradient id="paint1_linear_38_6570" x1="29.051" y1="29.2285" x2="15.9048" y2="27.7708" gradientUnits="userSpaceOnUse">
<stop stop-color="#FFFF46"/>
<stop offset="0.1" stop-color="#EFE53B"/>
<stop offset="0.32" stop-color="#D1B326"/>
<stop offset="0.53" stop-color="#B98C16"/>
<stop offset="0.71" stop-color="#A86F0A"/>
<stop offset="0.88" stop-color="#9E5E03"/>
<stop offset="1" stop-color="#9A5800"/>
</linearGradient>
<linearGradient id="paint2_linear_38_6570" x1="29.8422" y1="29.6798" x2="18.9065" y2="29.6798" gradientUnits="userSpaceOnUse">
<stop stop-color="#FEFEFF"/>
<stop offset="1" stop-color="white"/>
</linearGradient>
<linearGradient id="paint3_linear_38_6570" x1="30.2102" y1="30.3487" x2="12.8106" y2="30.3487" gradientUnits="userSpaceOnUse">
<stop stop-color="#DAAA00"/>
<stop offset="1" stop-color="#5E3000"/>
</linearGradient>
<radialGradient id="paint4_radial_38_6570" cx="0" cy="0" r="1" gradientUnits="userSpaceOnUse" gradientTransform="translate(27.0223 29.9411) rotate(-3.82989) scale(8.84694 3.2352)">
<stop stop-color="#FE7000"/>
<stop offset="0.03" stop-color="#E26300"/>
<stop offset="0.1" stop-color="#B34F00"/>
<stop offset="0.17" stop-color="#883C00"/>
<stop offset="0.24" stop-color="#632C00"/>
<stop offset="0.32" stop-color="#441E00"/>
<stop offset="0.4" stop-color="#2B1300"/>
<stop offset="0.5" stop-color="#180B00"/>
<stop offset="0.61" stop-color="#0A0500"/>
<stop offset="0.74" stop-color="#020100"/>
<stop offset="1"/>
</radialGradient>
<linearGradient id="paint5_linear_38_6570" x1="28.3058" y1="25.8231" x2="18.7812" y2="25.8231" gradientUnits="userSpaceOnUse">
<stop stop-color="#F6B83A"/>
<stop offset="0.03" stop-color="#F1B438"/>
<stop offset="0.35" stop-color="#BC8020"/>
<stop offset="0.63" stop-color="#955B0F"/>
<stop offset="0.85" stop-color="#7D4404"/>
<stop offset="0.99" stop-color="#743C00"/>
</linearGradient>
<linearGradient id="paint6_linear_38_6570" x1="26.1199" y1="22.5587" x2="26.1199" y2="27.2349" gradientUnits="userSpaceOnUse">
<stop stop-color="#FEFEBE"/>
<stop offset="1" stop-color="white"/>
</linearGradient>
<linearGradient id="paint7_linear_38_6570" x1="22.457" y1="22.4896" x2="22.457" y2="37.5104" gradientUnits="userSpaceOnUse">
<stop/>
<stop offset="1"/>
</linearGradient>
<linearGradient id="paint8_linear_38_6570" x1="33.3256" y1="24.5109" x2="14.6398" y2="22.2221" gradientUnits="userSpaceOnUse">
<stop offset="0.09" stop-color="#F6E23A"/>
<stop offset="0.6" stop-color="#B46E00"/>
<stop offset="1" stop-color="#4C2A00"/>
</linearGradient>
<linearGradient id="paint9_linear_38_6570" x1="20.6815" y1="22.922" x2="20.6815" y2="27.3177" gradientUnits="userSpaceOnUse">
<stop/>
<stop offset="1"/>
</linearGradient>
<linearGradient id="paint10_linear_38_6570" x1="0.284912" y1="39.8799" x2="48.0138" y2="39.8799" gradientUnits="userSpaceOnUse">
<stop stop-color="#C68E40"/>
<stop offset="1" stop-color="#F5DC66"/>
</linearGradient>
<linearGradient id="paint11_linear_38_6570" x1="10.0438" y1="13.5046" x2="8.53665" y2="22.919" gradientUnits="userSpaceOnUse">
<stop stop-color="#885C00"/>
<stop offset="0.36" stop-color="#855A00"/>
<stop offset="0.64" stop-color="#7B5200"/>
<stop offset="0.88" stop-color="#6B4500"/>
<stop offset="1" stop-color="#603C00"/>
</linearGradient>
<linearGradient id="paint12_linear_38_6570" x1="7.80669" y1="9.98217" x2="9.17383" y2="26.3697" gradientUnits="userSpaceOnUse">
<stop offset="0.01" stop-color="#F6E220"/>
<stop offset="0.12" stop-color="#FFFF5C"/>
<stop offset="0.6" stop-color="#B46E00"/>
<stop offset="1" stop-color="#4C2A00"/>
</linearGradient>
<linearGradient id="paint13_linear_38_6570" x1="39.2283" y1="7.25529" x2="39.2283" y2="31.3016" gradientUnits="userSpaceOnUse">
<stop offset="0.6" stop-color="#B46E00"/>
<stop offset="1" stop-color="#4C2A00"/>
</linearGradient>
<linearGradient id="paint14_linear_38_6570" x1="39.3705" y1="12.0185" x2="39.3705" y2="32.3697" gradientUnits="userSpaceOnUse">
<stop offset="0.09" stop-color="#FFFF4C"/>
<stop offset="0.6" stop-color="#B46E00"/>
<stop offset="1" stop-color="#4C2A00"/>
</linearGradient>
<radialGradient id="paint15_radial_38_6570" cx="0" cy="0" r="1" gradientUnits="userSpaceOnUse" gradientTransform="translate(28.1612 12.8784) scale(17.944 14.8651)">
<stop stop-color="#FEFEBE"/>
<stop offset="0.29" stop-color="#F6DA3A"/>
<stop offset="0.71" stop-color="#D29400"/>
<stop offset="1" stop-color="#94681A"/>
</radialGradient>
<radialGradient id="paint16_radial_38_6570" cx="0" cy="0" r="1" gradientUnits="userSpaceOnUse" gradientTransform="translate(29.34 12.6297) scale(10.5575 8.74601)">
<stop offset="0.01" stop-color="#FEFE60"/>
<stop offset="0.04" stop-color="#E2E255"/>
<stop offset="0.1" stop-color="#B3B344"/>
<stop offset="0.17" stop-color="#888833"/>
<stop offset="0.24" stop-color="#636326"/>
<stop offset="0.32" stop-color="#44441A"/>
<stop offset="0.41" stop-color="#2B2B10"/>
<stop offset="0.5" stop-color="#181809"/>
<stop offset="0.61" stop-color="#0A0A04"/>
<stop offset="0.74" stop-color="#020201"/>
<stop offset="1"/>
</radialGradient>
<radialGradient id="paint17_radial_38_6570" cx="0" cy="0" r="1" gradientUnits="userSpaceOnUse" gradientTransform="translate(29.2353 11.6143) scale(10.5575 8.74601)">
<stop offset="0.01" stop-color="#FEFE60"/>
<stop offset="0.04" stop-color="#E2E255"/>
<stop offset="0.1" stop-color="#B3B344"/>
<stop offset="0.17" stop-color="#888833"/>
<stop offset="0.24" stop-color="#636326"/>
<stop offset="0.32" stop-color="#44441A"/>
<stop offset="0.41" stop-color="#2B2B10"/>
<stop offset="0.5" stop-color="#181809"/>
<stop offset="0.61" stop-color="#0A0A04"/>
<stop offset="0.74" stop-color="#020201"/>
<stop offset="1"/>
</radialGradient>
<radialGradient id="paint18_radial_38_6570" cx="0" cy="0" r="1" gradientUnits="userSpaceOnUse" gradientTransform="translate(24.5755 10.5965) scale(10.5575 8.74601)">
<stop offset="0.01" stop-color="#FE9800"/>
<stop offset="0.04" stop-color="#E28700"/>
<stop offset="0.1" stop-color="#B36B00"/>
<stop offset="0.17" stop-color="#885100"/>
<stop offset="0.24" stop-color="#633B00"/>
<stop offset="0.32" stop-color="#442900"/>
<stop offset="0.41" stop-color="#2B1A00"/>
<stop offset="0.5" stop-color="#180E00"/>
<stop offset="0.61" stop-color="#0A0600"/>
<stop offset="0.74" stop-color="#020100"/>
<stop offset="1"/>
</radialGradient>
<linearGradient id="paint19_linear_38_6570" x1="26.9886" y1="10.827" x2="26.9886" y2="19.7724" gradientUnits="userSpaceOnUse">
<stop stop-color="#FEFEBE"/>
<stop offset="1" stop-color="white"/>
</linearGradient>
<linearGradient id="paint20_linear_38_6570" x1="17.0025" y1="14.3822" x2="17.0025" y2="22.1855" gradientUnits="userSpaceOnUse">
<stop/>
<stop offset="1"/>
</linearGradient>
<linearGradient id="paint21_linear_38_6570" x1="20.0922" y1="10.8993" x2="20.0922" y2="22.3533" gradientUnits="userSpaceOnUse">
<stop/>
<stop offset="1"/>
</linearGradient>
<linearGradient id="paint22_linear_38_6570" x1="29.1215" y1="16.5246" x2="22.4733" y2="17.8663" gradientUnits="userSpaceOnUse">
<stop stop-color="#BA8A00"/>
<stop offset="0.35" stop-color="#B88700"/>
<stop offset="0.61" stop-color="#B27D00"/>
<stop offset="0.85" stop-color="#A86D00"/>
<stop offset="1" stop-color="#9E5E00"/>
</linearGradient>
<linearGradient id="paint23_linear_38_6570" x1="28.0663" y1="11.8928" x2="16.9384" y2="30.577" gradientUnits="userSpaceOnUse">
<stop stop-color="#FEFEBE"/>
<stop offset="0.39" stop-color="#F6DA3A"/>
<stop offset="0.75" stop-color="#D27C00"/>
<stop offset="1" stop-color="#9A6E1A"/>
</linearGradient>
<linearGradient id="paint24_linear_38_6570" x1="19.1177" y1="15.6713" x2="28.8977" y2="15.6713" gradientUnits="userSpaceOnUse">
<stop stop-color="#FEFEBE"/>
<stop offset="1" stop-color="white"/>
</linearGradient>
<linearGradient id="paint25_linear_38_6570" x1="26.7336" y1="12.7275" x2="25.7327" y2="16.0895" gradientUnits="userSpaceOnUse">
<stop stop-color="#FEFEBE"/>
<stop offset="1" stop-color="white"/>
</linearGradient>
<linearGradient id="paint26_linear_38_6570" x1="23.608" y1="19.6198" x2="23.608" y2="15.3201" gradientUnits="userSpaceOnUse">
<stop stop-color="#FEFEBE"/>
<stop offset="1" stop-color="white"/>
</linearGradient>
<linearGradient id="paint27_linear_38_6570" x1="23.608" y1="19.3939" x2="23.608" y2="15.0942" gradientUnits="userSpaceOnUse">
<stop stop-color="#885C00"/>
<stop offset="0.36" stop-color="#855A00"/>
<stop offset="0.64" stop-color="#7B5200"/>
<stop offset="0.88" stop-color="#6B4500"/>
<stop offset="1" stop-color="#603C00"/>
</linearGradient>
<radialGradient id="paint28_radial_38_6570" cx="0" cy="0" r="1" gradientUnits="userSpaceOnUse" gradientTransform="translate(31.69 9.15816) scale(27.0772 22.4312)">
<stop stop-color="#FEFEBE"/>
<stop offset="0.39" stop-color="#F6DA3A"/>
<stop offset="0.75" stop-color="#D27C00"/>
<stop offset="1" stop-color="#9A6E1A"/>
</radialGradient>
<radialGradient id="paint29_radial_38_6570" cx="0" cy="0" r="1" gradientUnits="userSpaceOnUse" gradientTransform="translate(31.8567 7.70934) scale(9.18132 7.60595)">
<stop offset="0.01" stop-color="#FEFE00"/>
<stop offset="0.04" stop-color="#E2E200"/>
<stop offset="0.1" stop-color="#B3B300"/>
<stop offset="0.17" stop-color="#888800"/>
<stop offset="0.24" stop-color="#636300"/>
<stop offset="0.32" stop-color="#444400"/>
<stop offset="0.41" stop-color="#2B2B00"/>
<stop offset="0.5" stop-color="#181800"/>
<stop offset="0.61" stop-color="#0A0A00"/>
<stop offset="0.74" stop-color="#020200"/>
<stop offset="1"/>
</radialGradient>
<linearGradient id="paint30_linear_38_6570" x1="33.3028" y1="7.16857" x2="33.3028" y2="10.8109" gradientUnits="userSpaceOnUse">
<stop stop-color="#FEFEBE"/>
<stop offset="1" stop-color="white"/>
</linearGradient>
<linearGradient id="paint31_linear_38_6570" x1="9.12463" y1="8.46239" x2="39.1739" y2="8.46239" gradientUnits="userSpaceOnUse">
<stop stop-color="#FEFEFF"/>
<stop offset="0.12" stop-color="#FEFEFF"/>
<stop offset="0.54" stop-color="#FEFEFF"/>
<stop offset="1" stop-color="#FEFEFF"/>
</linearGradient>
<linearGradient id="paint32_linear_38_6570" x1="32.8436" y1="11.5493" x2="19.3912" y2="11.5493" gradientUnits="userSpaceOnUse">
<stop stop-color="#D8A200"/>
<stop offset="0.17" stop-color="#D39D00"/>
<stop offset="0.4" stop-color="#C39000"/>
<stop offset="0.64" stop-color="#A97A00"/>
<stop offset="0.9" stop-color="#865B00"/>
<stop offset="1" stop-color="#764E00"/>
</linearGradient>
<linearGradient id="paint33_linear_38_6570" x1="7.47858" y1="26.8434" x2="7.47858" y2="17.8871" gradientUnits="userSpaceOnUse">
<stop stop-color="#EC2A48"/>
<stop offset="1" stop-color="#E44846"/>
</linearGradient>
<linearGradient id="paint34_linear_38_6570" x1="7.99179" y1="13.8836" x2="7.99179" y2="24.2439" gradientUnits="userSpaceOnUse">
<stop stop-color="#D03826"/>
<stop offset="1" stop-color="#BA0A26"/>
</linearGradient>
<linearGradient id="paint35_linear_38_6570" x1="40.6343" y1="26.8289" x2="40.6343" y2="17.8726" gradientUnits="userSpaceOnUse">
<stop stop-color="#EC2A48"/>
<stop offset="1" stop-color="#E44846"/>
</linearGradient>
<linearGradient id="paint36_linear_38_6570" x1="40.1195" y1="13.8694" x2="40.1195" y2="24.2298" gradientUnits="userSpaceOnUse">
<stop stop-color="#D03826"/>
<stop offset="1" stop-color="#BA0A26"/>
</linearGradient>
<linearGradient id="paint37_linear_38_6570" x1="33.3189" y1="40.0193" x2="10.8079" y2="64.8636" gradientUnits="userSpaceOnUse">
<stop/>
<stop offset="1" stop-color="#723C00"/>
</linearGradient>
<radialGradient id="paint38_radial_38_6570" cx="0" cy="0" r="1" gradientUnits="userSpaceOnUse" gradientTransform="translate(27.893 8.97553) scale(18.3769 7.68873)">
<stop stop-color="#FE7000"/>
<stop offset="0.03" stop-color="#E26300"/>
<stop offset="0.1" stop-color="#B34F00"/>
<stop offset="0.17" stop-color="#883C00"/>
<stop offset="0.24" stop-color="#632C00"/>
<stop offset="0.32" stop-color="#441E00"/>
<stop offset="0.4" stop-color="#2B1300"/>
<stop offset="0.5" stop-color="#180B00"/>
<stop offset="0.61" stop-color="#0A0500"/>
<stop offset="0.74" stop-color="#020100"/>
<stop offset="1"/>
</radialGradient>
<radialGradient id="paint39_radial_38_6570" cx="0" cy="0" r="1" gradientUnits="userSpaceOnUse" gradientTransform="translate(26.0865 14.5328) scale(18.3769 7.68873)">
<stop stop-color="#FE7000"/>
<stop offset="0.03" stop-color="#E26300"/>
<stop offset="0.1" stop-color="#B34F00"/>
<stop offset="0.17" stop-color="#883C00"/>
<stop offset="0.24" stop-color="#632C00"/>
<stop offset="0.32" stop-color="#441E00"/>
<stop offset="0.4" stop-color="#2B1300"/>
<stop offset="0.5" stop-color="#180B00"/>
<stop offset="0.61" stop-color="#0A0500"/>
<stop offset="0.74" stop-color="#020100"/>
<stop offset="1"/>
</radialGradient>
<radialGradient id="paint40_radial_38_6570" cx="0" cy="0" r="1" gradientUnits="userSpaceOnUse" gradientTransform="translate(8.73158 27.0773) rotate(-26.1645) scale(3.61647 6.62185)">
<stop stop-color="#B80000"/>
<stop offset="0.01" stop-color="#B10000"/>
<stop offset="0.08" stop-color="#880000"/>
<stop offset="0.16" stop-color="#630000"/>
<stop offset="0.25" stop-color="#440000"/>
<stop offset="0.34" stop-color="#2B0000"/>
<stop offset="0.45" stop-color="#180000"/>
<stop offset="0.57" stop-color="#0A0000"/>
<stop offset="0.72" stop-color="#020000"/>
<stop offset="1"/>
</radialGradient>
<radialGradient id="paint41_radial_38_6570" cx="0" cy="0" r="1" gradientUnits="userSpaceOnUse" gradientTransform="translate(42.617 26.8957) rotate(-26.1645) scale(3.61647 6.62185)">
<stop stop-color="#B80000"/>
<stop offset="0.01" stop-color="#B10000"/>
<stop offset="0.08" stop-color="#880000"/>
<stop offset="0.16" stop-color="#630000"/>
<stop offset="0.25" stop-color="#440000"/>
<stop offset="0.34" stop-color="#2B0000"/>
<stop offset="0.45" stop-color="#180000"/>
<stop offset="0.57" stop-color="#0A0000"/>
<stop offset="0.72" stop-color="#020000"/>
<stop offset="1"/>
</radialGradient>
<radialGradient id="paint42_radial_38_6570" cx="0" cy="0" r="1" gradientUnits="userSpaceOnUse" gradientTransform="translate(33.1876 8.91109) rotate(61.1418) scale(5.06802 5.90681)">
<stop stop-color="white"/>
<stop offset="0.09" stop-color="#FFD990"/>
<stop offset="0.18" stop-color="#FFB629"/>
<stop offset="0.22" stop-color="#FFA800"/>
<stop offset="0.25" stop-color="#E49600"/>
<stop offset="0.3" stop-color="#B47700"/>
<stop offset="0.35" stop-color="#895B00"/>
<stop offset="0.41" stop-color="#644200"/>
<stop offset="0.47" stop-color="#452D00"/>
<stop offset="0.54" stop-color="#2C1D00"/>
<stop offset="0.61" stop-color="#181000"/>
<stop offset="0.7" stop-color="#0A0700"/>
<stop offset="0.81" stop-color="#020200"/>
<stop offset="1"/>
</radialGradient>
<radialGradient id="paint43_radial_38_6570" cx="0" cy="0" r="1" gradientUnits="userSpaceOnUse" gradientTransform="translate(30.0779 11.3474) rotate(139.847) scale(6.39033 0.76591)">
<stop stop-color="#FFFF00"/>
<stop offset="0.01" stop-color="#F4ED04"/>
<stop offset="0.04" stop-color="#DEC50D"/>
<stop offset="0.07" stop-color="#CCA615"/>
<stop offset="0.1" stop-color="#BF901A"/>
<stop offset="0.13" stop-color="#B8831D"/>
<stop offset="0.15" stop-color="#B57E1E"/>
<stop offset="0.21" stop-color="#976919"/>
<stop offset="0.29" stop-color="#6F4D12"/>
<stop offset="0.38" stop-color="#4D350D"/>
<stop offset="0.47" stop-color="#312208"/>
<stop offset="0.57" stop-color="#1B1304"/>
<stop offset="0.68" stop-color="#0C0802"/>
<stop offset="0.81" stop-color="#030200"/>
<stop offset="1"/>
</radialGradient>
<radialGradient id="paint44_radial_38_6570" cx="0" cy="0" r="1" gradientUnits="userSpaceOnUse" gradientTransform="translate(36.7939 5.79964) rotate(-39.1265) scale(6.41205 0.763316)">
<stop stop-color="#FFFF00"/>
<stop offset="0.01" stop-color="#F4ED04"/>
<stop offset="0.04" stop-color="#DEC50D"/>
<stop offset="0.07" stop-color="#CCA615"/>
<stop offset="0.1" stop-color="#BF901A"/>
<stop offset="0.13" stop-color="#B8831D"/>
<stop offset="0.15" stop-color="#B57E1E"/>
<stop offset="0.21" stop-color="#976919"/>
<stop offset="0.29" stop-color="#6F4D12"/>
<stop offset="0.38" stop-color="#4D350D"/>
<stop offset="0.47" stop-color="#312208"/>
<stop offset="0.57" stop-color="#1B1304"/>
<stop offset="0.68" stop-color="#0C0802"/>
<stop offset="0.81" stop-color="#030200"/>
<stop offset="1"/>
</radialGradient>
<radialGradient id="paint45_radial_38_6570" cx="0" cy="0" r="1" gradientUnits="userSpaceOnUse" gradientTransform="translate(36.8991 11.051) rotate(39.0934) scale(6.0238 0.839669)">
<stop stop-color="#FFFF00"/>
<stop offset="0.01" stop-color="#F4ED04"/>
<stop offset="0.04" stop-color="#DEC50D"/>
<stop offset="0.07" stop-color="#CCA615"/>
<stop offset="0.1" stop-color="#BF901A"/>
<stop offset="0.13" stop-color="#B8831D"/>
<stop offset="0.15" stop-color="#B57E1E"/>
<stop offset="0.21" stop-color="#976919"/>
<stop offset="0.29" stop-color="#6F4D12"/>
<stop offset="0.38" stop-color="#4D350D"/>
<stop offset="0.47" stop-color="#312208"/>
<stop offset="0.57" stop-color="#1B1304"/>
<stop offset="0.68" stop-color="#0C0802"/>
<stop offset="0.81" stop-color="#030200"/>
<stop offset="1"/>
</radialGradient>
<radialGradient id="paint46_radial_38_6570" cx="0" cy="0" r="1" gradientUnits="userSpaceOnUse" gradientTransform="translate(30.176 5.54015) rotate(-139.814) scale(6.00123 0.842589)">
<stop stop-color="#FFFF00"/>
<stop offset="0.01" stop-color="#F4ED04"/>
<stop offset="0.04" stop-color="#DEC50D"/>
<stop offset="0.07" stop-color="#CCA615"/>
<stop offset="0.1" stop-color="#BF901A"/>
<stop offset="0.13" stop-color="#B8831D"/>
<stop offset="0.15" stop-color="#B57E1E"/>
<stop offset="0.21" stop-color="#976919"/>
<stop offset="0.29" stop-color="#6F4D12"/>
<stop offset="0.38" stop-color="#4D350D"/>
<stop offset="0.47" stop-color="#312208"/>
<stop offset="0.57" stop-color="#1B1304"/>
<stop offset="0.68" stop-color="#0C0802"/>
<stop offset="0.81" stop-color="#030200"/>
<stop offset="1"/>
</radialGradient>
</defs>
</svg>
