<svg width="53" height="48" viewBox="0 0 53 48" fill="none" xmlns="http://www.w3.org/2000/svg">
<path opacity="0.74" d="M44.6881 35.2491H37.1761L33.79 36.2043L30.1428 35.2491H4.1794L0.185059 48H42.1109L44.6881 35.2491Z" fill="url(#paint0_linear_38_7304)"/>
<path style="mix-blend-mode:overlay" opacity="0.23" d="M1.01921 45.3372H42.3017L41.7312 48H0.185059L1.01921 45.3372Z" fill="url(#paint1_linear_38_7304)"/>
<path d="M4.17932 35.2492L11.6181 33.1616H45.1348L44.688 35.2492H37.176L33.7899 36.2043L30.1427 35.2492H4.17932Z" fill="url(#paint2_linear_38_7304)"/>
<g style="mix-blend-mode:overlay" opacity="0.56">
<path d="M30.0619 35.6701L33.7291 36.6256L37.1344 35.6701H44.603L44.6882 35.2491H37.1767L33.79 36.2043L30.1429 35.2491H4.17943L4.04736 35.6701H30.0619Z" fill="white"/>
</g>
<path opacity="0.49" d="M26.3775 34.5428L14.3976 35.2492H4.17932L11.6181 33.1616H22.7736L26.3775 34.5428Z" fill="#000800"/>
<path d="M26.3322 30.9133L24.6814 31.0167L23.0307 30.9133C23.0307 30.9133 20.1491 31.0744 17.7173 32.759C17.7173 32.759 19.3882 33.397 24.6814 33.397C29.9747 33.397 31.6456 32.759 31.6456 32.759C29.2138 31.0744 26.3322 30.9133 26.3322 30.9133Z" fill="url(#paint3_linear_38_7304)"/>
<path style="mix-blend-mode:overlay" opacity="0.54" d="M24.6788 33.1842C20.443 33.1842 18.5276 32.776 17.9297 32.6128C17.857 32.6602 17.7843 32.7085 17.712 32.7589C17.712 32.7589 19.3829 33.397 24.6762 33.397C29.9695 33.397 31.6404 32.7589 31.6404 32.7589C31.5681 32.7085 31.4954 32.6602 31.4222 32.6128C30.8294 32.776 28.914 33.1842 24.6788 33.1842Z" fill="url(#paint4_linear_38_7304)"/>
<path d="M31.6409 32.7624C31.5269 32.8051 29.7936 33.3983 24.6804 33.3983C19.385 33.3983 17.7162 32.7603 17.7162 32.7603L17.3252 33.8474C17.3252 33.8474 19.4918 34.582 24.6087 34.5953H24.75C29.8658 34.582 32.0335 33.8474 32.0335 33.8474L31.6409 32.7624Z" fill="url(#paint5_linear_38_7304)"/>
<path style="mix-blend-mode:screen" d="M27.0328 36.7385C31.4177 36.445 34.8458 34.9089 34.6896 33.3075C34.5334 31.7062 30.8521 30.646 26.4672 30.9395C22.0823 31.233 18.6542 32.7692 18.8104 34.3705C18.9666 35.9719 22.6479 37.0321 27.0328 36.7385Z" fill="url(#paint6_radial_38_7304)"/>
<path style="mix-blend-mode:overlay" opacity="0.43" d="M26.5158 30.9291C26.3976 30.9171 26.3316 30.9133 26.3316 30.9133L24.6808 31.0167L23.0301 30.9133C23.0301 30.9133 20.1485 31.0744 17.7167 32.759C20.8965 31.7334 25.2865 31.5586 25.2865 31.5586L26.5158 30.9291Z" fill="url(#paint7_linear_38_7304)"/>
<path opacity="0.37" d="M33.7802 34.8411L30.1428 35.2492L33.79 36.2043L37.1761 35.2492C37.059 35.2838 33.7802 34.8411 33.7802 34.8411Z" fill="white"/>
<path d="M27.5919 26.8261C27.3143 26.7778 26.4002 26.6979 25.2287 26.6812H25.1616C25.1101 26.6812 25.0585 26.6812 25.0043 26.6812H24.897H24.6478H24.5405C24.4889 26.6812 24.4374 26.6812 24.3858 26.6812H24.3187C23.1467 26.6987 22.2326 26.7778 21.9555 26.8261C21.8931 26.8334 21.8307 26.8402 21.7688 26.8483L22.7876 31.1812C22.7876 31.1812 23.1766 31.491 24.3058 31.5658H24.3373H24.3409C24.475 31.5748 24.6189 31.5795 24.7722 31.5791C24.9254 31.5786 25.0698 31.5748 25.2034 31.5658H25.2075H25.239C26.3682 31.491 26.7572 31.1812 26.7572 31.1812L27.7781 26.8483C27.7162 26.8402 27.6543 26.8334 27.5919 26.8261Z" fill="url(#paint8_linear_38_7304)"/>
<path style="mix-blend-mode:overlay" opacity="0.37" d="M25.728 31.5128C26.4812 31.3983 26.7567 31.1812 26.7567 31.1812L27.7776 26.8483C27.7162 26.8402 27.6537 26.8333 27.5913 26.8261C27.4123 26.7949 26.9661 26.7509 26.3574 26.7188L25.9215 26.9346L25.728 31.5128Z" fill="url(#paint9_linear_38_7304)"/>
<path style="mix-blend-mode:overlay" opacity="0.43" d="M24.5881 26.6786H24.5411C24.4896 26.6786 24.438 26.6786 24.3864 26.6786H24.3193C23.1473 26.6962 22.2332 26.7752 21.9562 26.8235C21.8937 26.8308 21.8313 26.8376 21.7694 26.8457L22.7882 31.1812C22.7882 31.1812 23.1772 31.491 24.3064 31.5658H24.3379H24.3415C24.4447 31.5727 24.5566 31.5761 24.6717 31.5778L24.5881 26.6786Z" fill="url(#paint10_linear_38_7304)"/>
<path style="mix-blend-mode:screen" d="M29.0049 22.2257C41.7951 22.2257 52.1635 17.8903 52.1635 12.5423C52.1635 7.19438 41.7951 2.85901 29.0049 2.85901C16.2147 2.85901 5.84619 7.19438 5.84619 12.5423C5.84619 17.8903 16.2147 22.2257 29.0049 22.2257Z" fill="url(#paint11_radial_38_7304)"/>
<path style="mix-blend-mode:overlay" opacity="0.37" d="M23.0307 26.6163L19.3423 26.4855L19.5884 27.3971C19.5884 27.3971 21.0844 27.7719 23.2365 27.9099L23.0307 26.6163Z" fill="url(#paint12_linear_38_7304)"/>
<path d="M13.0522 17.5261L5.77441 18.7338V19.3727L9.09813 24.2624L11.209 25.0424L15.0605 24.4146L14.6452 23.2065L11.6702 23.5586L10.2629 23.083L8.16699 20.0958L8.97122 19.2018L13.614 19.6975L13.0522 17.5261Z" fill="url(#paint13_linear_38_7304)"/>
<path d="M12.8289 16.8684L7.97045 16.3697L5.77441 18.7338L8.9965 23.6731L11.0424 24.4611L14.7757 23.8265L14.3734 22.6064L11.4897 22.962L10.1252 22.4817L8.09323 19.4641L8.87321 18.5607L13.3736 19.0616L12.8289 16.8684Z" fill="url(#paint14_linear_38_7304)"/>
<g opacity="0.28">
<path d="M10.1257 22.4817L8.20672 19.6312L8.09375 19.762L10.1257 22.7795L11.4902 23.2599L14.4683 22.8928L14.3739 22.6064L11.4902 22.962L10.1257 22.4817Z" fill="white"/>
<path d="M7.97094 16.6676L12.9057 17.174L12.8293 16.8684L7.97094 16.3697L5.7749 18.7338L5.88891 18.9086L7.97094 16.6676Z" fill="white"/>
</g>
<g opacity="0.35">
<path d="M11.3172 19.4522L12.6543 19.5949L12.1106 17.4L12.0533 17.4103L11.9631 17.0321L11.9017 16.7731L10.7657 16.6564L11.3172 19.4522Z" fill="black"/>
<path d="M14.562 24.4611L14.2654 23.3436L13.9157 23.0453L14.1395 22.6351L11.9977 22.8992L12.3825 24.8513L13.5283 24.6646L14.562 24.4611Z" fill="black"/>
</g>
<path d="M36.1748 17.5261L43.4526 18.7338V19.3727L40.1289 24.2624L38.0179 25.0424L34.1665 24.4146L34.5818 23.2065L37.5568 23.5586L38.9646 23.083L41.0605 20.0958L40.2558 19.2018L35.613 19.6975L36.1748 17.5261Z" fill="url(#paint15_linear_38_7304)"/>
<path d="M36.3982 16.8684L41.2571 16.3697L43.4526 18.7338L40.2305 23.6731L38.1846 24.4611L34.4513 23.8265L34.8537 22.6064L37.7373 22.962L39.1018 22.4817L41.1338 19.4641L40.3538 18.5607L35.8534 19.0616L36.3982 16.8684Z" fill="url(#paint16_linear_38_7304)"/>
<g opacity="0.63">
<path d="M39.1021 22.4817L41.0211 19.6312L41.1341 19.762L39.1021 22.7795L37.7376 23.2599L34.7595 22.8928L34.8539 22.6064L37.7376 22.962L39.1021 22.4817Z" fill="white"/>
<path d="M41.2574 16.6676L36.3221 17.174L36.3985 16.8684L41.2574 16.3697L43.4529 18.7338L43.3389 18.9086L41.2574 16.6676Z" fill="white"/>
</g>
<g opacity="0.4">
<path d="M36.6892 24.8257L37.122 22.8859L35.6766 22.7077L35.5946 22.9556L35.4651 23.3487L35.3779 23.3385L34.9631 24.5445L36.6892 24.8257Z" fill="black"/>
<path d="M37.822 19.4616L38.4483 16.6577L37.3051 16.7752L37.2525 16.9872L37.1467 17.4128L37.0792 17.4017L36.5096 19.6017L37.822 19.4616Z" fill="black"/>
</g>
<path d="M38.279 14.824C38.279 13.8304 32.232 13.0253 24.7721 13.0253C17.3122 13.0253 11.2657 13.8308 11.2657 14.824C11.2662 14.8642 11.2762 14.904 11.2952 14.9411C11.5392 15.9146 13.2596 22.7235 13.9993 24.1265C14.7731 25.5966 19.031 26.8876 24.5348 26.9582V26.9616C24.6148 26.9616 24.6932 26.9616 24.7721 26.9616C24.851 26.9616 24.93 26.9616 25.0094 26.9616V26.9582C30.5137 26.8876 34.7701 25.5966 35.5454 24.1265C36.2851 22.7235 38.0056 15.9146 38.2496 14.9411C38.2682 14.9039 38.2782 14.8642 38.279 14.824Z" fill="url(#paint17_radial_38_7304)"/>
<path style="mix-blend-mode:screen" d="M37.5348 22.0596C41.7025 18.607 41.7025 13.0092 37.5348 9.55656C33.367 6.10393 26.6098 6.10393 22.442 9.55656C18.2743 13.0092 18.2743 18.607 22.442 22.0596C26.6098 25.5123 33.367 25.5123 37.5348 22.0596Z" fill="url(#paint18_radial_38_7304)"/>
<path style="mix-blend-mode:screen" d="M37.4298 21.0399C41.5975 17.5872 41.5975 11.9894 37.4298 8.53679C33.262 5.08416 26.5048 5.08416 22.337 8.53679C18.1693 11.9894 18.1693 17.5872 22.337 21.0399C26.5048 24.4925 33.262 24.4925 37.4298 21.0399Z" fill="url(#paint19_radial_38_7304)"/>
<path style="mix-blend-mode:screen" d="M32.7479 20.017C36.9157 16.5644 36.9157 10.9666 32.7479 7.51396C28.5802 4.06133 21.8229 4.06133 17.6551 7.51396C13.4874 10.9666 13.4874 16.5644 17.6551 20.017C21.8229 23.4697 28.5802 23.4697 32.7479 20.017Z" fill="url(#paint20_radial_38_7304)"/>
<path style="mix-blend-mode:overlay" d="M29.5301 14.0355C29.5301 14.0355 28.6779 21.2329 28.1507 22.9432C27.6234 24.6535 23.7968 26.9932 19.3423 26.4855C20.86 26.7611 22.6221 26.9334 24.5355 26.9582V26.9616C24.6154 26.9616 24.6939 26.9616 24.7728 26.9616C24.8517 26.9616 24.9306 26.9616 25.0101 26.9616V26.9582C26.86 26.9342 28.5695 26.7723 30.0511 26.5124C30.1718 26.4791 33.1556 25.6291 33.9108 22.8466C34.6815 20.0065 35.9113 14.9223 35.9113 14.9223L29.5301 14.0355Z" fill="url(#paint21_linear_38_7304)"/>
<path style="mix-blend-mode:overlay" opacity="0.43" d="M18.2119 23.6253C17.7342 22.5663 16.5678 15.6659 16.2093 13.5013C13.191 13.8313 11.2657 14.3321 11.2657 14.8924C11.2662 14.9326 11.2762 14.9724 11.2952 15.0095C11.5392 15.9834 13.2596 22.7919 13.9993 24.1975C14.7453 25.612 18.7159 26.8599 23.9189 27.015C19.7775 26.4312 18.7798 24.8834 18.2119 23.6253Z" fill="url(#paint22_linear_38_7304)"/>
<path opacity="0.19" d="M11.2657 14.824C11.2662 14.8642 11.2762 14.904 11.2952 14.9411C11.373 15.2526 11.6047 16.1607 11.9018 17.2979C19.1399 14.1133 35.9127 14.9223 35.9127 14.9223L36.963 14.0479C34.7876 13.4432 30.1474 13.0253 24.7742 13.0253C17.3127 13.0253 11.2657 13.8308 11.2657 14.824Z" fill="#000018"/>
<path style="mix-blend-mode:overlay" opacity="0.2" d="M25.2381 24.0363C24.9595 22.8957 24.0944 14.0363 24.0944 14.0363L23.9959 13.0286C20.3446 13.0594 17.0869 13.285 14.7924 13.6239V13.6808H14.798C15.0095 13.65 15.2288 13.6201 15.4558 13.591L15.5166 13.5838L15.7813 13.5513L15.8741 13.5402C15.9773 13.5282 16.0841 13.5158 16.1914 13.5043H16.2094C16.5705 15.6684 17.7343 22.5692 18.212 23.6282C18.2636 23.7449 18.3214 23.8645 18.3838 23.9855L18.3931 24.0025C18.4101 24.0359 18.4277 24.0692 18.4447 24.1021L18.4663 24.1406C18.4808 24.1671 18.4957 24.1936 18.5112 24.2205C18.521 24.2372 18.5308 24.2543 18.5411 24.2709L18.5819 24.3384C18.5943 24.3585 18.6072 24.3786 18.6201 24.3987C18.633 24.4188 18.6448 24.4376 18.6572 24.4568C18.6696 24.4761 18.6876 24.5017 18.7031 24.5243C18.7186 24.547 18.7263 24.5581 18.7382 24.5752L18.7898 24.6487C18.8006 24.6632 18.8115 24.6782 18.8228 24.6914C18.8429 24.7179 18.863 24.7444 18.8842 24.7705C18.8945 24.7833 18.9043 24.7961 18.9151 24.8085C18.9378 24.8367 18.9611 24.8645 18.9848 24.894L19.0132 24.9261C19.0389 24.9555 19.0647 24.9854 19.0931 25.0149L19.1174 25.0406C19.1468 25.0722 19.1772 25.1034 19.2082 25.1346C19.2149 25.1406 19.221 25.147 19.2278 25.1534C19.2613 25.1867 19.2958 25.2196 19.3309 25.2525L19.3428 25.2632C20.0052 25.8688 21.0157 26.4218 22.6624 26.7902H22.6665C22.7697 26.8127 22.8741 26.8347 22.9796 26.8564H22.9858C23.0924 26.8778 23.2018 26.8983 23.3139 26.9179C23.738 26.9389 24.1708 26.9534 24.6123 26.9607V26.9641C24.6923 26.9641 24.7707 26.9641 24.8496 26.9641C24.9286 26.9641 25.0075 26.9641 25.0869 26.9641V26.9607C25.5983 26.9538 26.097 26.937 26.5829 26.9102C26.1672 26.1748 25.4331 24.8346 25.2381 24.0363Z" fill="url(#paint23_linear_38_7304)"/>
<path d="M24.7732 10.3009C16.4358 10.3009 9.67749 11.4394 9.67749 12.8436C9.67817 12.8998 9.68913 12.9556 9.70999 13.009C9.78169 13.3714 9.96792 14.3052 10.2181 15.5201C11.9767 14.4445 17.8266 13.6539 24.7732 13.6539C31.7198 13.6539 37.5697 14.4445 39.3283 15.5201C39.5785 14.3052 39.7647 13.3714 39.8364 13.009C39.8573 12.9556 39.8683 12.8998 39.8689 12.8436C39.8689 11.4377 33.1106 10.3009 24.7732 10.3009Z" fill="url(#paint24_radial_38_7304)"/>
<path style="mix-blend-mode:screen" d="M39.0793 16.3097C42.7037 13.3071 42.7037 8.43908 39.0793 5.43655C35.4548 2.43403 29.5785 2.43402 25.9541 5.43655C22.3297 8.43908 22.3297 13.3071 25.9541 16.3097C29.5785 19.3122 35.4548 19.3122 39.0793 16.3097Z" fill="url(#paint25_radial_38_7304)"/>
<path style="mix-blend-mode:overlay" d="M30.9372 10.5218L30.4775 13.788L31.5779 13.9261C32.9708 14.0382 34.3554 14.212 35.7259 14.4466L36.6411 14.5615L37.4608 11.4645C35.8817 11.053 33.6161 10.7239 30.9372 10.5218Z" fill="url(#paint26_linear_38_7304)"/>
<path opacity="0.14" d="M19.3623 10.4692C13.6981 10.8359 9.67749 11.7603 9.67749 12.8436C9.67817 12.8998 9.68913 12.9555 9.70999 13.009C9.78169 13.3714 9.96792 14.3051 10.2181 15.5201C11.53 14.7175 15.1188 14.0739 19.742 13.7987L19.3623 10.4692Z" fill="black"/>
<path style="mix-blend-mode:overlay" d="M24.7736 10.3009C16.4362 10.3009 9.67786 11.4394 9.67786 12.8436C9.67853 12.8998 9.68949 12.9556 9.71036 13.009C9.71397 13.0283 9.71861 13.0518 9.72274 13.0718C10.3222 11.7603 16.8319 10.7274 24.7736 10.7274C32.7153 10.7274 39.225 11.7603 39.8244 13.0718C39.8286 13.0496 39.8332 13.0291 39.8368 13.009C39.8577 12.9556 39.8686 12.8998 39.8693 12.8436C39.8693 11.4377 33.111 10.3009 24.7736 10.3009Z" fill="url(#paint27_linear_38_7304)"/>
<path opacity="0.35" d="M24.6669 13.2137C12.6989 13.2137 10.5456 14.7457 10.2604 15.3034C10.2245 15.3675 10.2172 15.44 10.2397 15.5081C12.022 14.4397 17.8529 13.6539 24.7732 13.6539C31.6935 13.6539 37.5212 14.438 39.3051 15.5073C39.3273 15.4394 39.32 15.3673 39.2844 15.3034C38.9992 14.7457 36.6349 13.2137 24.6669 13.2137Z" fill="url(#paint28_linear_38_7304)"/>
<path d="M39.2844 15.3864C38.9991 14.8911 36.6349 13.5317 24.6669 13.5317C12.6988 13.5317 10.5456 14.8932 10.2598 15.3885C9.97405 15.8838 11.5768 16.0488 11.5768 16.0488L11.4092 15.3864C15.4613 14.3009 22.363 14.1949 24.7732 14.1928C27.1833 14.1906 34.0855 14.3009 38.1376 15.3864L37.969 16.0466C37.969 16.0466 39.5697 15.8821 39.2844 15.3864Z" fill="url(#paint29_linear_38_7304)"/>
<path opacity="0.14" d="M24.0126 24.7117C26.821 24.6687 29.0555 22.7478 29.0035 20.4213C28.9516 18.0948 26.6328 16.2436 23.8244 16.2867C21.016 16.3297 18.7815 18.2506 18.8335 20.5771C18.8854 22.9037 21.2042 24.7548 24.0126 24.7117Z" fill="black"/>
<path d="M24.5731 24.315C27.3819 24.315 29.659 22.4286 29.659 20.1017C29.659 17.7748 27.3819 15.8885 24.5731 15.8885C21.7642 15.8885 19.4872 17.7748 19.4872 20.1017C19.4872 22.4286 21.7642 24.315 24.5731 24.315Z" fill="url(#paint30_linear_38_7304)"/>
<path d="M27.9098 22.5619C29.7526 21.0354 29.7526 18.5603 27.9098 17.0338C26.0671 15.5072 23.0794 15.5072 21.2367 17.0338C19.394 18.5603 19.394 21.0354 21.2367 22.5619C23.0794 24.0885 26.0671 24.0885 27.9098 22.5619Z" fill="url(#paint31_linear_38_7304)"/>
<path style="mix-blend-mode:overlay" d="M24.5726 15.8893C23.8769 15.8892 23.1899 16.0164 22.5606 16.262C21.9313 16.5076 21.3754 16.8655 20.9327 17.31C20.49 17.7545 20.1714 18.2746 19.9998 18.833C19.8282 19.3915 19.8078 19.9744 19.9401 20.5402C19.8155 19.8239 19.9447 19.093 20.3121 18.4363C20.6795 17.7797 21.2693 17.2256 22.0096 16.8414C22.75 16.4572 23.6091 16.2594 24.4826 16.2721C25.3561 16.2847 26.2064 16.5073 26.9301 16.9128C27.6538 17.3182 28.2197 17.8891 28.5591 18.556C28.8985 19.2229 28.9968 19.957 28.842 20.6693C28.6872 21.3816 28.286 22.0413 27.6871 22.5683C27.0883 23.0952 26.3175 23.4667 25.4686 23.6376C26.6209 23.4532 27.6489 22.9197 28.3519 22.1411C29.0548 21.3626 29.3823 20.395 29.2704 19.4272C29.1584 18.4594 28.6151 17.5609 27.7464 16.9071C26.8778 16.2533 25.7462 15.8912 24.5726 15.8915V15.8893Z" fill="url(#paint32_linear_38_7304)"/>
<path d="M24.5734 15.8893V20.6577L29.213 20.5069C29.3387 19.9431 29.3131 19.3634 29.1379 18.8088C28.9628 18.2542 28.6424 17.7384 28.1996 17.2979C27.7568 16.8574 27.2024 16.503 26.5757 16.26C25.949 16.0169 25.2653 15.8911 24.5734 15.8915V15.8893Z" fill="url(#paint33_linear_38_7304)"/>
<path style="mix-blend-mode:overlay" d="M26.9306 19.8526L25.8101 17.5445H22.4993L22.0505 18.9176H23.8973L24.149 19.4347L21.9556 21.4718V22.8731H26.2259V21.6757H24.7299L26.9306 19.8526Z" fill="url(#paint34_linear_38_7304)"/>
<path d="M22.247 18.668H23.9989L24.3239 19.3351L22.1062 21.3945V22.6235H26.0753V21.6757H24.3662L26.7536 19.6979L25.708 17.5445H22.6143L22.247 18.668Z" fill="url(#paint35_linear_38_7304)"/>
<g opacity="0.48">
<path d="M24.3235 19.335L22.1058 21.3944V21.7017L24.3235 19.6423V19.335Z" fill="black"/>
<path d="M22.614 17.8517H25.7076L26.647 19.7859L26.7533 19.6979L25.7076 17.5444H22.614L22.2467 18.6679H22.3473L22.614 17.8517Z" fill="black"/>
<path d="M26.0749 21.6756H24.3658V21.9829H26.0749V21.6756Z" fill="black"/>
</g>
<path style="mix-blend-mode:screen" d="M30.7928 34.6991C30.1036 36.2077 28.1021 37.0453 26.3229 36.5701C24.5437 36.0949 23.6574 34.488 24.3456 32.9803C25.0337 31.4727 27.0368 30.635 28.8155 31.1098C30.5942 31.5846 31.482 33.1897 30.7928 34.6991Z" fill="url(#paint36_radial_38_7304)"/>
<path style="mix-blend-mode:screen" d="M21.4169 38.9799C21.1714 38.7774 22.6034 37.244 24.6091 35.5551C26.6148 33.8662 28.4445 32.662 28.6896 32.865C28.9346 33.068 27.5057 34.6 25.4974 36.2893C23.4892 37.9786 21.6651 39.1829 21.4169 38.9799Z" fill="url(#paint37_radial_38_7304)"/>
<path style="mix-blend-mode:screen" d="M33.8338 28.6953C33.5893 28.4919 31.7389 29.6782 29.7002 31.3393C27.6615 33.0004 26.2078 34.5167 26.4502 34.7197C26.6927 34.9227 28.5446 33.7393 30.5833 32.0757C32.622 30.412 34.0783 28.8992 33.8338 28.6953Z" fill="url(#paint38_radial_38_7304)"/>
<path style="mix-blend-mode:screen" d="M33.4625 38.671C33.1875 38.8996 31.4119 37.8223 29.4975 36.2641C27.5832 34.706 26.2543 33.2582 26.5303 33.0295C26.8063 32.8009 28.5803 33.877 30.4952 35.4351C32.4101 36.9932 33.7385 38.4415 33.4625 38.671Z" fill="url(#paint39_radial_38_7304)"/>
<path style="mix-blend-mode:screen" d="M21.8204 29.0261C21.5434 29.2535 22.8444 30.7248 24.7247 32.3103C26.605 33.8958 28.3533 34.997 28.6293 34.7688C28.9053 34.5406 27.6063 33.0701 25.7255 31.4838C23.8446 29.8975 22.0964 28.7975 21.8204 29.0261Z" fill="url(#paint40_radial_38_7304)"/>
<path style="mix-blend-mode:screen" d="M39.4887 13.1107C38.7995 14.6192 36.7985 15.4569 35.0187 14.9816C33.239 14.5064 32.3533 12.9 33.042 11.3919C33.7306 9.88378 35.7327 9.04617 37.5114 9.52096C39.2901 9.99575 40.1779 11.6026 39.4887 13.1107Z" fill="url(#paint41_radial_38_7304)"/>
<path style="mix-blend-mode:screen" d="M30.115 17.3915C29.87 17.1889 31.2989 15.6556 33.3072 13.9671C35.3154 12.2787 37.1426 11.074 37.3876 11.2748C37.6327 11.4757 36.2043 13.0098 34.1955 14.6992C32.1867 16.3885 30.3611 17.5945 30.115 17.3915Z" fill="url(#paint42_radial_38_7304)"/>
<path style="mix-blend-mode:screen" d="M42.5297 7.10685C42.2852 6.90386 40.4348 8.08976 38.3961 9.75129C36.3574 11.4128 34.9037 12.9282 35.1462 13.1312C35.3886 13.3342 37.2406 12.1509 39.2793 10.4876C41.318 8.82437 42.7737 7.31112 42.5297 7.10685Z" fill="url(#paint43_radial_38_7304)"/>
<path style="mix-blend-mode:screen" d="M42.1584 17.0825C41.8834 17.3116 40.1078 16.2338 38.1935 14.6761C36.2791 13.1184 34.9502 11.6701 35.2262 11.4415C35.5022 11.2129 37.2763 12.289 39.1911 13.8466C41.106 15.4043 42.4344 16.8535 42.1584 17.0825Z" fill="url(#paint44_radial_38_7304)"/>
<path style="mix-blend-mode:screen" d="M30.5163 7.43766C30.2393 7.66544 31.5403 9.13638 33.4206 10.7223C35.3009 12.3082 37.0492 13.4086 37.3257 13.1804C37.6022 12.9522 36.3022 11.4817 34.4214 9.89535C32.5406 8.30903 30.7923 7.20903 30.5163 7.43766Z" fill="url(#paint45_radial_38_7304)"/>
<defs>
<linearGradient id="paint0_linear_38_7304" x1="35.4217" y1="53.6919" x2="7.50382" y2="15.8873" gradientUnits="userSpaceOnUse">
<stop offset="0.01" stop-color="#606A7D"/>
<stop offset="1" stop-color="#AEBACA"/>
</linearGradient>
<linearGradient id="paint1_linear_38_7304" x1="0.185059" y1="46.6688" x2="42.3017" y2="46.6688" gradientUnits="userSpaceOnUse">
<stop/>
<stop offset="1"/>
</linearGradient>
<linearGradient id="paint2_linear_38_7304" x1="42.7891" y1="34.6829" x2="15.1316" y2="34.6829" gradientUnits="userSpaceOnUse">
<stop stop-color="#CAD2E0"/>
<stop offset="1" stop-color="#A8B4CA"/>
</linearGradient>
<linearGradient id="paint3_linear_38_7304" x1="31.4315" y1="32.1551" x2="20.4632" y2="32.1551" gradientUnits="userSpaceOnUse">
<stop offset="0.04" stop-color="#BCC8DC"/>
<stop offset="0.96" stop-color="#444C54"/>
<stop offset="1" stop-color="#404850"/>
</linearGradient>
<linearGradient id="paint4_linear_38_7304" x1="30.4926" y1="33.0047" x2="19.5052" y2="33.0047" gradientUnits="userSpaceOnUse">
<stop stop-color="#FEFEFF"/>
<stop offset="1" stop-color="white"/>
</linearGradient>
<linearGradient id="paint5_linear_38_7304" x1="29.708" y1="33.6769" x2="16.976" y2="33.6769" gradientUnits="userSpaceOnUse">
<stop stop-color="#98A2B2"/>
<stop offset="0.17" stop-color="#D8E4E4"/>
<stop offset="1" stop-color="#282A32"/>
</linearGradient>
<radialGradient id="paint6_radial_38_7304" cx="0" cy="0" r="1" gradientUnits="userSpaceOnUse" gradientTransform="translate(26.7602 33.8636) rotate(-3.82989) scale(7.91499 2.8944)">
<stop stop-color="#98A2C6"/>
<stop offset="0.03" stop-color="#8891B1"/>
<stop offset="0.1" stop-color="#686F88"/>
<stop offset="0.18" stop-color="#4C5163"/>
<stop offset="0.27" stop-color="#353844"/>
<stop offset="0.36" stop-color="#21232B"/>
<stop offset="0.46" stop-color="#121418"/>
<stop offset="0.58" stop-color="#08080A"/>
<stop offset="0.72" stop-color="#020202"/>
<stop offset="1"/>
</radialGradient>
<linearGradient id="paint7_linear_38_7304" x1="22.9537" y1="31.4646" x2="17.1244" y2="33.63" gradientUnits="userSpaceOnUse">
<stop/>
<stop offset="1"/>
</linearGradient>
<linearGradient id="paint8_linear_38_7304" x1="27.8575" y1="29.1299" x2="21.4067" y2="29.1299" gradientUnits="userSpaceOnUse">
<stop offset="0.09" stop-color="#9CAAB2"/>
<stop offset="0.23" stop-color="#89969E"/>
<stop offset="0.57" stop-color="#616C74"/>
<stop offset="0.84" stop-color="#49525A"/>
<stop offset="1" stop-color="#404850"/>
</linearGradient>
<linearGradient id="paint9_linear_38_7304" x1="26.753" y1="25.8496" x2="26.753" y2="30.5483" gradientUnits="userSpaceOnUse">
<stop stop-color="#FEFEBE"/>
<stop offset="1" stop-color="white"/>
</linearGradient>
<linearGradient id="paint10_linear_38_7304" x1="23.2195" y1="27.0825" x2="23.2195" y2="30.4231" gradientUnits="userSpaceOnUse">
<stop/>
<stop offset="1"/>
</linearGradient>
<radialGradient id="paint11_radial_38_7304" cx="0" cy="0" r="1" gradientUnits="userSpaceOnUse" gradientTransform="translate(28.9904 12.6137) scale(23.0042 9.62478)">
<stop stop-color="#8AA6CA"/>
<stop offset="0.04" stop-color="#7992B1"/>
<stop offset="0.11" stop-color="#5D7088"/>
<stop offset="0.19" stop-color="#445263"/>
<stop offset="0.27" stop-color="#2F3844"/>
<stop offset="0.36" stop-color="#1E242B"/>
<stop offset="0.46" stop-color="#101418"/>
<stop offset="0.58" stop-color="#07080A"/>
<stop offset="0.73" stop-color="#020202"/>
<stop offset="1"/>
</radialGradient>
<linearGradient id="paint12_linear_38_7304" x1="21.2892" y1="26.215" x2="21.2892" y2="30.6313" gradientUnits="userSpaceOnUse">
<stop/>
<stop offset="1"/>
</linearGradient>
<linearGradient id="paint13_linear_38_7304" x1="11.5423" y1="16.7526" x2="10.028" y2="26.212" gradientUnits="userSpaceOnUse">
<stop stop-color="#626E7A"/>
<stop offset="1" stop-color="#282A32"/>
</linearGradient>
<linearGradient id="paint14_linear_38_7304" x1="14.8299" y1="20.8547" x2="-2.66436" y2="18.7501" gradientUnits="userSpaceOnUse">
<stop offset="0.09" stop-color="#9CAAB2"/>
<stop offset="1" stop-color="#404850"/>
</linearGradient>
<linearGradient id="paint15_linear_38_7304" x1="38.8098" y1="10.474" x2="38.8098" y2="34.6342" gradientUnits="userSpaceOnUse">
<stop stop-color="#6C829C"/>
<stop offset="1" stop-color="#282A32"/>
</linearGradient>
<linearGradient id="paint16_linear_38_7304" x1="28.5266" y1="19.4881" x2="46.6669" y2="21.6776" gradientUnits="userSpaceOnUse">
<stop stop-color="#ECFEF4"/>
<stop offset="0.29" stop-color="#CED8D4"/>
<stop offset="0.83" stop-color="#8A9498"/>
<stop offset="1" stop-color="#50565C"/>
</linearGradient>
<radialGradient id="paint17_radial_38_7304" cx="0" cy="0" r="1" gradientUnits="userSpaceOnUse" gradientTransform="translate(28.8036 16.1236) scale(18.0294 14.9359)">
<stop stop-color="#FAFEF4"/>
<stop offset="0.29" stop-color="#CED8D4"/>
<stop offset="0.71" stop-color="#8A9498"/>
<stop offset="1" stop-color="#50565C"/>
</radialGradient>
<radialGradient id="paint18_radial_38_7304" cx="0" cy="0" r="1" gradientUnits="userSpaceOnUse" gradientTransform="translate(29.9885 15.8736) scale(10.6077 8.7876)">
<stop stop-color="#E0E4FF"/>
<stop offset="0.04" stop-color="#C6CAE2"/>
<stop offset="0.1" stop-color="#9DA0B3"/>
<stop offset="0.17" stop-color="#787A88"/>
<stop offset="0.24" stop-color="#575963"/>
<stop offset="0.32" stop-color="#3C3D44"/>
<stop offset="0.41" stop-color="#26272B"/>
<stop offset="0.5" stop-color="#151518"/>
<stop offset="0.61" stop-color="#09090A"/>
<stop offset="0.74" stop-color="#020202"/>
<stop offset="1"/>
</radialGradient>
<radialGradient id="paint19_radial_38_7304" cx="0" cy="0" r="1" gradientUnits="userSpaceOnUse" gradientTransform="translate(29.8835 14.8536) scale(10.6077 8.7876)">
<stop stop-color="#E0E4FF"/>
<stop offset="0.04" stop-color="#C6CAE2"/>
<stop offset="0.1" stop-color="#9DA0B3"/>
<stop offset="0.17" stop-color="#787A88"/>
<stop offset="0.24" stop-color="#575963"/>
<stop offset="0.32" stop-color="#3C3D44"/>
<stop offset="0.41" stop-color="#26272B"/>
<stop offset="0.5" stop-color="#151518"/>
<stop offset="0.61" stop-color="#09090A"/>
<stop offset="0.74" stop-color="#020202"/>
<stop offset="1"/>
</radialGradient>
<radialGradient id="paint20_radial_38_7304" cx="0" cy="0" r="1" gradientUnits="userSpaceOnUse" gradientTransform="translate(25.2015 13.831) scale(10.6077 8.7876)">
<stop offset="0.01" stop-color="#9F95B1"/>
<stop offset="0.09" stop-color="#7A7287"/>
<stop offset="0.17" stop-color="#595463"/>
<stop offset="0.25" stop-color="#3E3A44"/>
<stop offset="0.34" stop-color="#27252B"/>
<stop offset="0.45" stop-color="#161418"/>
<stop offset="0.57" stop-color="#09090A"/>
<stop offset="0.72" stop-color="#020202"/>
<stop offset="1"/>
</radialGradient>
<linearGradient id="paint21_linear_38_7304" x1="27.6265" y1="14.0629" x2="27.6265" y2="23.0505" gradientUnits="userSpaceOnUse">
<stop stop-color="#F2ECFF"/>
<stop offset="1" stop-color="white"/>
</linearGradient>
<linearGradient id="paint22_linear_38_7304" x1="15.5572" y1="17.3227" x2="17.7814" y2="25.2325" gradientUnits="userSpaceOnUse">
<stop/>
<stop offset="1"/>
</linearGradient>
<linearGradient id="paint23_linear_38_7304" x1="19.6791" y1="14.6833" x2="21.0497" y2="23.9708" gradientUnits="userSpaceOnUse">
<stop/>
<stop offset="1"/>
</linearGradient>
<radialGradient id="paint24_radial_38_7304" cx="0" cy="0" r="1" gradientUnits="userSpaceOnUse" gradientTransform="translate(32.3497 12.3855) scale(27.2061 22.538)">
<stop stop-color="#ECFEF4"/>
<stop offset="0.29" stop-color="#CED8D4"/>
<stop offset="0.55" stop-color="#8A9498"/>
<stop offset="1" stop-color="#50565C"/>
</radialGradient>
<radialGradient id="paint25_radial_38_7304" cx="0" cy="0" r="1" gradientUnits="userSpaceOnUse" gradientTransform="translate(32.5166 10.9299) scale(9.22519 7.6423)">
<stop offset="0.01" stop-color="#D2CAFF"/>
<stop offset="0.04" stop-color="#BAB3E2"/>
<stop offset="0.11" stop-color="#938EB3"/>
<stop offset="0.17" stop-color="#706C88"/>
<stop offset="0.25" stop-color="#524F63"/>
<stop offset="0.32" stop-color="#383644"/>
<stop offset="0.41" stop-color="#24222B"/>
<stop offset="0.5" stop-color="#141318"/>
<stop offset="0.61" stop-color="#08080A"/>
<stop offset="0.74" stop-color="#020202"/>
<stop offset="1"/>
</radialGradient>
<linearGradient id="paint26_linear_38_7304" x1="33.9694" y1="10.3867" x2="33.9694" y2="14.0461" gradientUnits="userSpaceOnUse">
<stop stop-color="#FEFEBE"/>
<stop offset="1" stop-color="white"/>
</linearGradient>
<linearGradient id="paint27_linear_38_7304" x1="9.67786" y1="11.6864" x2="39.8693" y2="11.6864" gradientUnits="userSpaceOnUse">
<stop stop-color="#FEFEFF"/>
<stop offset="0.12" stop-color="#FEFEFF"/>
<stop offset="0.54" stop-color="#FEFEFF"/>
<stop offset="1" stop-color="#FEFEFF"/>
</linearGradient>
<linearGradient id="paint28_linear_38_7304" x1="33.5078" y1="14.3607" x2="19.9921" y2="14.3607" gradientUnits="userSpaceOnUse">
<stop stop-color="#6A7882"/>
<stop offset="0.22" stop-color="#65737D"/>
<stop offset="0.49" stop-color="#58636D"/>
<stop offset="0.8" stop-color="#424953"/>
<stop offset="1" stop-color="#30343E"/>
</linearGradient>
<linearGradient id="paint29_linear_38_7304" x1="33.5083" y1="14.7881" x2="19.9921" y2="14.7881" gradientUnits="userSpaceOnUse">
<stop stop-color="#828C9A"/>
<stop offset="0.4" stop-color="#636B78"/>
<stop offset="1" stop-color="#30343E"/>
</linearGradient>
<linearGradient id="paint30_linear_38_7304" x1="27.0461" y1="17.4637" x2="23.5508" y2="22.8972" gradientUnits="userSpaceOnUse">
<stop stop-color="#8A9498"/>
<stop offset="1" stop-color="#50565C"/>
</linearGradient>
<linearGradient id="paint31_linear_38_7304" x1="26.9367" y1="16.4361" x2="22.4717" y2="25.6907" gradientUnits="userSpaceOnUse">
<stop stop-color="#E6EAEC"/>
<stop offset="0.71" stop-color="#8A9498"/>
<stop offset="1" stop-color="#50565C"/>
</linearGradient>
<linearGradient id="paint32_linear_38_7304" x1="26.9378" y1="16.4342" x2="23.0246" y2="24.5445" gradientUnits="userSpaceOnUse">
<stop stop-color="#FEFEFF"/>
<stop offset="0.12" stop-color="#FEFEFF"/>
<stop offset="0.54" stop-color="#FEFEFF"/>
<stop offset="1" stop-color="#FEFEFF"/>
</linearGradient>
<linearGradient id="paint33_linear_38_7304" x1="28.2577" y1="16.6881" x2="26.0126" y2="20.3083" gradientUnits="userSpaceOnUse">
<stop stop-color="#F2ECFF"/>
<stop offset="0.48" stop-color="#FAF8FF"/>
<stop offset="1" stop-color="white"/>
</linearGradient>
<linearGradient id="paint34_linear_38_7304" x1="24.4848" y1="21.7419" x2="24.1445" y2="17.2482" gradientUnits="userSpaceOnUse">
<stop stop-color="#FEFEFF"/>
<stop offset="0.12" stop-color="#FEFEFF"/>
<stop offset="0.54" stop-color="#FEFEFF"/>
<stop offset="1" stop-color="#FEFEFF"/>
</linearGradient>
<linearGradient id="paint35_linear_38_7304" x1="24.4297" y1="24.0624" x2="24.4297" y2="18.6287" gradientUnits="userSpaceOnUse">
<stop stop-color="#6A7882"/>
<stop offset="0.37" stop-color="#505963"/>
<stop offset="0.77" stop-color="#393E48"/>
<stop offset="1" stop-color="#30343E"/>
</linearGradient>
<radialGradient id="paint36_radial_38_7304" cx="0" cy="0" r="1" gradientUnits="userSpaceOnUse" gradientTransform="translate(27.6672 34.1751) rotate(14.9765) scale(3.32244 2.9685)">
<stop stop-color="white"/>
<stop offset="0.03" stop-color="#E4E4E4"/>
<stop offset="0.1" stop-color="#B5B5B5"/>
<stop offset="0.17" stop-color="#8A8A8A"/>
<stop offset="0.24" stop-color="#646464"/>
<stop offset="0.32" stop-color="#454545"/>
<stop offset="0.41" stop-color="#2C2C2C"/>
<stop offset="0.51" stop-color="#181818"/>
<stop offset="0.62" stop-color="#0A0A0A"/>
<stop offset="0.75" stop-color="#020202"/>
<stop offset="1"/>
</radialGradient>
<radialGradient id="paint37_radial_38_7304" cx="0" cy="0" r="1" gradientUnits="userSpaceOnUse" gradientTransform="translate(25.4245 36.0401) rotate(139.847) scale(4.74707 0.568958)">
<stop stop-color="#F5F606"/>
<stop offset="0.03" stop-color="#C5C823"/>
<stop offset="0.06" stop-color="#9DA23B"/>
<stop offset="0.09" stop-color="#7E844E"/>
<stop offset="0.11" stop-color="#686F5B"/>
<stop offset="0.14" stop-color="#5B6263"/>
<stop offset="0.16" stop-color="#565E66"/>
<stop offset="0.24" stop-color="#40464C"/>
<stop offset="0.35" stop-color="#292D31"/>
<stop offset="0.48" stop-color="#17191B"/>
<stop offset="0.61" stop-color="#0A0B0C"/>
<stop offset="0.77" stop-color="#020303"/>
<stop offset="1"/>
</radialGradient>
<radialGradient id="paint38_radial_38_7304" cx="0" cy="0" r="1" gradientUnits="userSpaceOnUse" gradientTransform="translate(30.1659 31.8682) rotate(-39.1265) scale(4.76321 0.567031)">
<stop stop-color="#F5F606"/>
<stop offset="0.03" stop-color="#C5C823"/>
<stop offset="0.06" stop-color="#9DA23B"/>
<stop offset="0.09" stop-color="#7E844E"/>
<stop offset="0.11" stop-color="#686F5B"/>
<stop offset="0.14" stop-color="#5B6263"/>
<stop offset="0.16" stop-color="#565E66"/>
<stop offset="0.24" stop-color="#40464C"/>
<stop offset="0.35" stop-color="#292D31"/>
<stop offset="0.48" stop-color="#17191B"/>
<stop offset="0.61" stop-color="#0A0B0C"/>
<stop offset="0.77" stop-color="#020303"/>
<stop offset="1"/>
</radialGradient>
<radialGradient id="paint39_radial_38_7304" cx="0" cy="0" r="1" gradientUnits="userSpaceOnUse" gradientTransform="translate(31.3582 34.8645) rotate(39.0933) scale(4.47416 0.623663)">
<stop stop-color="#F5F606"/>
<stop offset="0.03" stop-color="#C5C823"/>
<stop offset="0.06" stop-color="#9DA23B"/>
<stop offset="0.09" stop-color="#7E844E"/>
<stop offset="0.11" stop-color="#686F5B"/>
<stop offset="0.14" stop-color="#5B6263"/>
<stop offset="0.16" stop-color="#565E66"/>
<stop offset="0.24" stop-color="#40464C"/>
<stop offset="0.35" stop-color="#292D31"/>
<stop offset="0.48" stop-color="#17191B"/>
<stop offset="0.61" stop-color="#0A0B0C"/>
<stop offset="0.77" stop-color="#020303"/>
<stop offset="1"/>
</radialGradient>
<radialGradient id="paint40_radial_38_7304" cx="0" cy="0" r="1" gradientUnits="userSpaceOnUse" gradientTransform="translate(26.364 30.7758) rotate(-139.814) scale(4.45803 0.62592)">
<stop stop-color="#F5F606"/>
<stop offset="0.03" stop-color="#C5C823"/>
<stop offset="0.06" stop-color="#9DA23B"/>
<stop offset="0.09" stop-color="#7E844E"/>
<stop offset="0.11" stop-color="#686F5B"/>
<stop offset="0.14" stop-color="#5B6263"/>
<stop offset="0.16" stop-color="#565E66"/>
<stop offset="0.24" stop-color="#40464C"/>
<stop offset="0.35" stop-color="#292D31"/>
<stop offset="0.48" stop-color="#17191B"/>
<stop offset="0.61" stop-color="#0A0B0C"/>
<stop offset="0.77" stop-color="#020303"/>
<stop offset="1"/>
</radialGradient>
<radialGradient id="paint41_radial_38_7304" cx="0" cy="0" r="1" gradientUnits="userSpaceOnUse" gradientTransform="translate(36.2917 12.5004) rotate(14.9765) scale(3.32244 2.9685)">
<stop stop-color="white"/>
<stop offset="0.03" stop-color="#E4E4E4"/>
<stop offset="0.1" stop-color="#B5B5B5"/>
<stop offset="0.17" stop-color="#8A8A8A"/>
<stop offset="0.24" stop-color="#646464"/>
<stop offset="0.32" stop-color="#454545"/>
<stop offset="0.41" stop-color="#2C2C2C"/>
<stop offset="0.51" stop-color="#181818"/>
<stop offset="0.62" stop-color="#0A0A0A"/>
<stop offset="0.75" stop-color="#020202"/>
<stop offset="1"/>
</radialGradient>
<radialGradient id="paint42_radial_38_7304" cx="0" cy="0" r="1" gradientUnits="userSpaceOnUse" gradientTransform="translate(34.073 14.396) rotate(139.847) scale(4.74707 0.568958)">
<stop stop-color="#F5F606"/>
<stop offset="0.03" stop-color="#C5C823"/>
<stop offset="0.06" stop-color="#9DA23B"/>
<stop offset="0.09" stop-color="#7E844E"/>
<stop offset="0.11" stop-color="#686F5B"/>
<stop offset="0.14" stop-color="#5B6263"/>
<stop offset="0.16" stop-color="#565E66"/>
<stop offset="0.24" stop-color="#40464C"/>
<stop offset="0.35" stop-color="#292D31"/>
<stop offset="0.48" stop-color="#17191B"/>
<stop offset="0.61" stop-color="#0A0B0C"/>
<stop offset="0.77" stop-color="#020303"/>
<stop offset="1"/>
</radialGradient>
<radialGradient id="paint43_radial_38_7304" cx="0" cy="0" r="1" gradientUnits="userSpaceOnUse" gradientTransform="translate(38.8422 10.2978) rotate(-39.1265) scale(4.76321 0.567031)">
<stop stop-color="#F5F606"/>
<stop offset="0.03" stop-color="#C5C823"/>
<stop offset="0.06" stop-color="#9DA23B"/>
<stop offset="0.09" stop-color="#7E844E"/>
<stop offset="0.11" stop-color="#686F5B"/>
<stop offset="0.14" stop-color="#5B6263"/>
<stop offset="0.16" stop-color="#565E66"/>
<stop offset="0.24" stop-color="#40464C"/>
<stop offset="0.35" stop-color="#292D31"/>
<stop offset="0.48" stop-color="#17191B"/>
<stop offset="0.61" stop-color="#0A0B0C"/>
<stop offset="0.77" stop-color="#020303"/>
<stop offset="1"/>
</radialGradient>
<radialGradient id="paint44_radial_38_7304" cx="0" cy="0" r="1" gradientUnits="userSpaceOnUse" gradientTransform="translate(39.7109 13.5831) rotate(39.0934) scale(4.47416 0.623663)">
<stop stop-color="#F5F606"/>
<stop offset="0.03" stop-color="#C5C823"/>
<stop offset="0.06" stop-color="#9DA23B"/>
<stop offset="0.09" stop-color="#7E844E"/>
<stop offset="0.11" stop-color="#686F5B"/>
<stop offset="0.14" stop-color="#5B6263"/>
<stop offset="0.16" stop-color="#565E66"/>
<stop offset="0.24" stop-color="#40464C"/>
<stop offset="0.35" stop-color="#292D31"/>
<stop offset="0.48" stop-color="#17191B"/>
<stop offset="0.61" stop-color="#0A0B0C"/>
<stop offset="0.77" stop-color="#020303"/>
<stop offset="1"/>
</radialGradient>
<radialGradient id="paint45_radial_38_7304" cx="0" cy="0" r="1" gradientUnits="userSpaceOnUse" gradientTransform="translate(34.6877 9.44182) rotate(-139.814) scale(4.45803 0.62592)">
<stop stop-color="#F5F606"/>
<stop offset="0.03" stop-color="#C5C823"/>
<stop offset="0.06" stop-color="#9DA23B"/>
<stop offset="0.09" stop-color="#7E844E"/>
<stop offset="0.11" stop-color="#686F5B"/>
<stop offset="0.14" stop-color="#5B6263"/>
<stop offset="0.16" stop-color="#565E66"/>
<stop offset="0.24" stop-color="#40464C"/>
<stop offset="0.35" stop-color="#292D31"/>
<stop offset="0.48" stop-color="#17191B"/>
<stop offset="0.61" stop-color="#0A0B0C"/>
<stop offset="0.77" stop-color="#020303"/>
<stop offset="1"/>
</radialGradient>
</defs>
</svg>
